<?xml version="1.0" encoding="utf-8"?>
<!-- Generator: Adobe Illustrator 23.0.3, SVG Export Plug-In . SVG Version: 6.00 Build 0)  -->
<svg version="1.1" id="Calque_1" xmlns="http://www.w3.org/2000/svg" xmlns:xlink="http://www.w3.org/1999/xlink" x="0px" y="0px"
	 viewBox="0 0 80 80" style="enable-background:new 0 0 80 80;" xml:space="preserve">
<style type="text/css">
	.st0{fill:#FFFFFF;}
</style>
<g>
	<path class="st0" d="M40,20c-11.05,0-20,8.95-20,20c0,11.05,8.95,20,20,20s20-8.95,20-20C60,28.95,51.05,20,40,20z M51.41,35.42
		l-14,14c-0.39,0.39-0.9,0.59-1.41,0.58c-0.52-0.01-1.03-0.19-1.41-0.58l-6-6c-0.78-0.78-0.78-2.04,0-2.83s2.04-0.78,2.83,0
		L36,45.18l12.59-12.59c0.78-0.78,2.04-0.78,2.83,0C52.2,33.37,52.2,34.63,51.41,35.42z"/>
</g>
</svg>
