<?xml version="1.0" encoding="utf-8"?>
<!-- Generator: Adobe Illustrator 23.0.3, SVG Export Plug-In . SVG Version: 6.00 Build 0)  -->
<svg version="1.1" id="Calque_1" xmlns="http://www.w3.org/2000/svg" xmlns:xlink="http://www.w3.org/1999/xlink" x="0px" y="0px"
	 viewBox="0 0 80 80" style="enable-background:new 0 0 80 80;" xml:space="preserve">
<style type="text/css">
	.st0{display:none;}
	.st1{display:inline;}
	.st2{fill:#FFFFFF;}
</style>
<g class="st0">
	<path class="st1" d="M37.17,17.37l-19.8,19.8c-1.56,1.56-1.56,4.1,0,5.66l19.8,19.8c1.56,1.56,4.1,1.56,5.66,0l19.8-19.8
		c1.56-1.56,1.56-4.1,0-5.66l-19.8-19.8C41.27,15.81,38.73,15.81,37.17,17.37z"/>
</g>
<g id="XMLID_1_">
	<g id="XMLID_2_">
		<path class="st2" d="M48.34,45.35c-1.85,3.94-5.88,6.97-10.31,5.08c-1.44-0.61-2.6-1.61-3.5-2.84l2.16-2.16
			c0.47,0.73,1.06,1.36,1.79,1.83c2.09,1.36,4.02,0.66,5.47-0.78c0.74-0.74,1.34-1.66,1.78-2.6C46.55,42.11,49.16,43.61,48.34,45.35
			z"/>
		<path class="st2" d="M40.81,41.31c0.81,0.82,0.47,2.61-1.02,2.6c-0.54,0-1.06,0-1.59,0.01L40.81,41.31z"/>
		<path class="st2" d="M48.42,34.82c0.78,1.75-1.82,3.25-2.6,1.48l2.23-2.23C48.19,34.31,48.31,34.56,48.42,34.82z"/>
		<path class="st2" d="M41.05,36.83l-2.26,2.26c-1.16,0-2.33,0-3.49,0c-0.03,0.3-0.04,0.59-0.04,0.88
			c-0.01,0.33,0.01,0.64,0.04,0.98c0.55,0,1.1-0.01,1.65-0.01l-3.86,3.86c-0.11-0.3-0.21-0.61-0.3-0.92c-1.02,0-2.04,0.04-3.07,0.03
			c-1.93,0.01-1.92-3,0-3c0.86,0,1.71,0,2.57,0c-0.02-0.32-0.03-0.64-0.03-0.95c0-0.33,0.01-0.59,0.04-0.93
			c-0.86,0.01-1.72,0.05-2.58,0.05c-1.92,0-1.92-3,0-3c1.05,0,2.1-0.04,3.14-0.03c0.88-2.86,2.7-5.47,5.52-6.54
			c3.07-1.16,5.88-0.03,7.91,2.08l-2.14,2.14c-1.46-1.58-3.48-2.38-5.67-0.91c-1.15,0.76-1.94,1.94-2.45,3.25
			c1.26,0,2.52,0.01,3.78,0.01C40.42,36.09,40.83,36.39,41.05,36.83z"/>
		<path class="st2" d="M28.02,54.1c7.26,6.17,18.2,5.84,25.06-1.02s7.19-17.8,1.02-25.06L28.02,54.1z M51.98,25.9
			c-7.26-6.17-18.2-5.84-25.06,1.02s-7.19,17.8-1.02,25.06L51.98,25.9z M55.2,24.8c8.39,8.39,8.38,22.03,0,30.41
			c-8.39,8.39-22.02,8.39-30.41,0c-8.38-8.38-8.39-22.02,0-30.41C33.18,16.42,46.82,16.42,55.2,24.8z"/>
	</g>
</g>
</svg>
