<?xml version="1.0" encoding="utf-8"?>
<!-- Generator: Adobe Illustrator 23.0.3, SVG Export Plug-In . SVG Version: 6.00 Build 0)  -->
<svg version="1.1" id="Calque_1" xmlns="http://www.w3.org/2000/svg" xmlns:xlink="http://www.w3.org/1999/xlink" x="0px" y="0px"
	 viewBox="0 0 80 80" style="enable-background:new 0 0 80 80;" xml:space="preserve">
<style type="text/css">
	.st0{fill:#FFFFFF;}
</style>
<g>
	<path class="st0" d="M36,22.99c-1.1-0.01-2.02,0.87-2.03,1.97c0,0.01,0,0.01,0,0.03H24c-2.21,0-4,1.79-4,4L20,41c0,2.21,1.8,4,4,4
		l32,0c2.21,0,4-1.8,4-4V29c0-2.21-1.79-4-4-4h-9.97c0-1.1-0.9-2-2-2c-0.01,0-0.01,0-0.03,0L36,22.99z M40,36.99c1.1,0,2,0.9,2,2
		c0,1.1-0.9,2-2,2c-1.1,0-2-0.9-2-2C38,37.89,38.9,36.99,40,36.99z M20,47.88V53c0,2.21,1.79,4,4,4L56,57c2.21,0,4-1.79,4-4v-5.12
		c-1.18,0.69-2.54,1.11-4,1.12H24C22.53,49,21.18,48.57,20,47.88z"/>
</g>
</svg>
