<?xml version="1.0" encoding="utf-8"?>
<!-- Generator: Adobe Illustrator 23.0.3, SVG Export Plug-In . SVG Version: 6.00 Build 0)  -->
<svg version="1.1" id="Calque_1" xmlns="http://www.w3.org/2000/svg" xmlns:xlink="http://www.w3.org/1999/xlink" x="0px" y="0px"
	 viewBox="0 0 32 32" style="enable-background:new 0 0 32 32;" xml:space="preserve">
<g>
	<g id="post-linkedin">
		<path d="M28,1H4C2.4,1,1,2.4,1,4v24c0,1.6,1.4,3,3,3h24c1.6,0,3-1.4,3-3V4C31,2.4,29.6,1,28,1z M10,26.5H5.5V13H10V26.5z
			 M7.8,10.4C6.3,10.4,5,9.3,5,7.7S6.3,5,7.8,5s2.7,1.2,2.7,2.7S9.3,10.4,7.8,10.4z M26.5,26.5H22v-7.9c0-1.2-1.1-2.3-2.3-2.3
			s-2.3,1.1-2.3,2.3v7.9H13V13h4.5v1.8c0.8-1.2,2.4-2.1,3.8-2.1c2.9,0,5.3,2.4,5.3,5.3V26.5z"/>
	</g>
</g>
</svg>
