<?xml version="1.0" encoding="utf-8"?>
<!-- Generator: Adobe Illustrator 23.0.3, SVG Export Plug-In . SVG Version: 6.00 Build 0)  -->
<svg version="1.1" id="Calque_1" xmlns="http://www.w3.org/2000/svg" xmlns:xlink="http://www.w3.org/1999/xlink" x="0px" y="0px"
	 viewBox="0 0 80 80" style="enable-background:new 0 0 80 80;" xml:space="preserve">
<style type="text/css">
	.st0{fill:none;stroke:#FFFFFF;stroke-width:2;stroke-miterlimit:10;}
	.st1{fill:#FFFFFF;}
</style>
<path class="st0" d="M68,75H12c-3.85,0-7-3.15-7-7V12c0-3.85,3.15-7,7-7h56c3.85,0,7,3.15,7,7v56C75,71.85,71.85,75,68,75z"/>
<g>
	<path class="st1" d="M21.12,52.12c0,1.1,0.9,2,2,2s2-0.9,2-2v-4c0-1.1-0.9-2-2-2s-2,0.9-2,2V52.12z M21.12,36.12c0,1.1,0.9,2,2,2
		s2-0.9,2-2v-4c0-1.1-0.9-2-2-2s-2,0.9-2,2V36.12z M29.12,54.12c0,1.1,0.9,2,2,2h4c0,2.21,1.79,4,4,4h16c1.1,0,2-0.9,2-2v-12
		c0-1.1-0.9-2-2-2h-12v-4h12c1.1,0,2-0.9,2-2v-12c0-1.1-0.9-2-2-2h-16c-2.21,0-4,1.79-4,4h-4c-1.1,0-2,0.9-2,2v8c0,1.1,0.9,2,2,2h4
		v4h-4c-1.1,0-2,0.9-2,2V54.12z"/>
</g>
</svg>
