<?xml version="1.0" encoding="utf-8"?>
<!-- Generator: Adobe Illustrator 23.0.3, SVG Export Plug-In . SVG Version: 6.00 Build 0)  -->
<svg version="1.1" id="Calque_1" xmlns="http://www.w3.org/2000/svg" xmlns:xlink="http://www.w3.org/1999/xlink" x="0px" y="0px"
	 viewBox="0 0 20 20" style="enable-background:new 0 0 20 20;" xml:space="preserve">
<path d="M10,1c-5,0-9,4-9,9s4,9,9,9s9-4,9-9S15,1,10,1z M8.5,13H7V8.5h1.5V13z M7.8,7.8C7.3,7.8,6.9,7.5,6.9,7
	c0-0.5,0.4-0.8,0.8-0.8c0.5,0,0.8,0.4,0.8,0.8C8.6,7.5,8.2,7.8,7.8,7.8z M13.8,13h-1.5v-2.1c0-1.4-1.5-1.3-1.5,0V13H9.3V8.5h1.5v0.8
	c0.7-1.2,3-1.3,3,1.2V13z"/>
</svg>
