<?xml version="1.0" encoding="utf-8"?>
<!-- Generator: Adobe Illustrator 23.0.3, SVG Export Plug-In . SVG Version: 6.00 Build 0)  -->
<svg version="1.1" id="Calque_1" xmlns="http://www.w3.org/2000/svg" xmlns:xlink="http://www.w3.org/1999/xlink" x="0px" y="0px"
	 viewBox="0 0 80 80" style="enable-background:new 0 0 80 80;" xml:space="preserve">
<style type="text/css">
	.st0{fill:none;stroke:#FFFFFF;stroke-width:2;stroke-miterlimit:10;}
	.st1{fill:#FFFFFF;}
</style>
<path class="st0" d="M68,75H12c-3.85,0-7-3.15-7-7V12c0-3.85,3.15-7,7-7h56c3.85,0,7,3.15,7,7v56C75,71.85,71.85,75,68,75z"/>
<g>
	<path class="st1" d="M14.54,37.17c-1.56,1.56-1.56,4.09,0,5.66L31.51,59.8c1.56,1.56,4.09,1.56,5.66,0l16.97-16.97
		c1.56-1.56,1.56-4.09,0-5.66L37.17,20.2c-1.56-1.56-4.09-1.56-5.66,0L14.54,37.17z M34.34,28.69c0.36-0.36,0.86-0.59,1.41-0.59
		c1.1,0,2,0.9,2,2v14.14c0,1.1-0.9,2-2,2h-8.49c-1.1,0-2-0.9-2-2c0-1.1,0.9-2,2-2h6.49l0-12.14C33.76,29.55,33.98,29.05,34.34,28.69
		z M44.24,18.79c-0.78,0.78-0.78,2.05,0,2.83L62.63,40L44.24,58.38c-0.78,0.78-0.78,2.05,0,2.83s2.05,0.78,2.83,0l18.38-18.38
		c1.56-1.56,1.56-4.09,0-5.66L47.07,18.79C46.29,18.01,45.02,18.01,44.24,18.79z"/>
</g>
</svg>
