<?xml version="1.0" encoding="utf-8"?>
<!-- Generator: Adobe Illustrator 23.0.3, SVG Export Plug-In . SVG Version: 6.00 Build 0)  -->
<svg version="1.1" id="Calque_1" xmlns="http://www.w3.org/2000/svg" xmlns:xlink="http://www.w3.org/1999/xlink" x="0px" y="0px"
	 viewBox="0 0 80 80" style="enable-background:new 0 0 80 80;" xml:space="preserve">
<style type="text/css">
	.st0{fill:none;stroke:#FFFFFF;stroke-width:2;stroke-miterlimit:10;}
	.st1{fill:#FFFFFF;}
</style>
<path class="st0" d="M68,75H12c-3.85,0-7-3.15-7-7V12c0-3.85,3.15-7,7-7h56c3.85,0,7,3.15,7,7v56C75,71.85,71.85,75,68,75z"/>
<g>
	<path class="st1" d="M51.35,42.25l-7.3,1.81l-1.81,7.3c-0.21,0.86-1.35,1.04-1.81,0.29l-3.97-6.38l-7.49,0.54
		c-0.88,0.06-1.4-0.96-0.83-1.64l4.84-5.75l-2.82-6.95c-0.33-0.82,0.48-1.63,1.3-1.3l6.94,2.81l5.75-4.84
		c0.67-0.57,1.7-0.05,1.64,0.83l-0.54,7.48l6.4,3.99C52.38,40.9,52.2,42.03,51.35,42.25z"/>
</g>
</svg>
