<?xml version="1.0" encoding="utf-8"?>
<!-- Generator: Adobe Illustrator 23.0.3, SVG Export Plug-In . SVG Version: 6.00 Build 0)  -->
<svg version="1.1" id="Calque_3" xmlns="http://www.w3.org/2000/svg" xmlns:xlink="http://www.w3.org/1999/xlink" x="0px" y="0px"
	 viewBox="0 0 80 80" style="enable-background:new 0 0 80 80;" xml:space="preserve">
<style type="text/css">
	.st0{fill:#FFFFFF;}
</style>
<path class="st0" d="M40,22.1c-0.1,0-0.1,0-0.2,0c-0.6,0.1-1.1,0.7-1.1,1.4v4.1c0,0.5,0.3,1,0.7,1.2c0.4,0.2,1,0.2,1.4,0
	c0.4-0.3,0.7-0.7,0.7-1.2v-4.1c0-0.4-0.1-0.8-0.4-1C40.7,22.2,40.4,22.1,40,22.1z M28.1,27c-0.5,0.1-0.9,0.5-1.1,1
	c-0.1,0.5,0,1,0.4,1.4l2.9,2.9c0.3,0.4,0.9,0.6,1.4,0.5c0.5-0.1,0.9-0.5,1-1c0.1-0.5-0.1-1-0.5-1.4l-2.9-2.9
	c-0.3-0.3-0.7-0.5-1.1-0.4C28.2,27,28.2,27,28.1,27z M51.6,27c-0.3,0-0.6,0.2-0.8,0.4l-2.9,2.9c-0.4,0.3-0.6,0.9-0.5,1.4
	c0.1,0.5,0.5,0.9,1,1c0.5,0.1,1-0.1,1.4-0.5l2.9-2.9c0.4-0.4,0.6-1,0.3-1.6C52.8,27.2,52.2,26.9,51.6,27z M40.1,32c-4.4,0-8,3.6-8,8
	c0,4.5,3.9,7.2,3.9,9.5V50c0,0.6,0.5,1,1,1h6.1c0.6,0,1-0.5,1-1v-0.6c0-2.3,3.9-4.9,3.9-9.5C48.1,35.5,44.5,32,40.1,32z M23.2,38.7
	c-0.8,0.1-1.3,0.8-1.2,1.6c0.1,0.8,0.8,1.3,1.6,1.2h4.1c0.5,0,1-0.3,1.2-0.7c0.2-0.4,0.2-1,0-1.4c-0.3-0.4-0.7-0.7-1.2-0.7h-4.1
	c0,0-0.1,0-0.1,0s-0.1,0-0.1,0C23.3,38.7,23.2,38.7,23.2,38.7z M52.1,38.7c-0.8,0.1-1.3,0.8-1.2,1.6s0.8,1.3,1.6,1.2h4.1
	c0.5,0,1-0.3,1.2-0.7c0.2-0.4,0.2-1,0-1.4c-0.3-0.4-0.7-0.7-1.2-0.7h-4.1c0,0-0.1,0-0.1,0c0,0-0.1,0-0.1,0
	C52.2,38.7,52.1,38.7,52.1,38.7z M31.2,47.4c-0.3,0-0.6,0.2-0.8,0.4l-2.9,2.9c-0.4,0.3-0.6,0.9-0.5,1.4c0.1,0.5,0.5,0.9,1,1
	c0.5,0.1,1-0.1,1.4-0.5l2.9-2.9c0.4-0.4,0.5-1,0.3-1.5c-0.2-0.5-0.7-0.9-1.3-0.8C31.3,47.4,31.2,47.4,31.2,47.4z M48.6,47.4
	c-0.5,0.1-0.9,0.5-1.1,1c-0.1,0.5,0,1,0.4,1.4l2.9,2.9c0.3,0.4,0.9,0.6,1.4,0.5c0.5-0.1,0.9-0.5,1-1c0.1-0.5-0.1-1-0.5-1.4l-2.9-2.9
	c-0.3-0.3-0.6-0.4-1-0.4c0,0-0.1,0-0.1,0C48.7,47.4,48.6,47.4,48.6,47.4z M37,52.4c-0.6,0-1,0.5-1,1v2.1c0,0.6,0.5,1,1,1h0.9
	c0.5,0.8,1.3,1.3,2.2,1.3s1.8-0.5,2.2-1.3h0.9c0.6,0,1-0.5,1-1v-2.1c0-0.6-0.5-1-1-1H37z"/>
</svg>
