<?xml version="1.0" encoding="utf-8"?>
<!-- Generator: Adobe Illustrator 23.0.3, SVG Export Plug-In . SVG Version: 6.00 Build 0)  -->
<svg version="1.1" id="Calque_1" xmlns="http://www.w3.org/2000/svg" xmlns:xlink="http://www.w3.org/1999/xlink" x="0px" y="0px"
	 viewBox="0 0 80 80" style="enable-background:new 0 0 80 80;" xml:space="preserve">
<style type="text/css">
	.st0{fill:#FFFFFF;}
</style>
<g>
	<path class="st0" d="M61.64,34.68c0-7.71-6.29-14-14-14s-14,6.29-14,14c0,3.49,1.3,6.69,3.44,9.15l-0.85,0.85h-2.59L22.47,55.85
		c-1.1,1.1-1.1,2.9,0,4c1.1,1.1,2.9,1.1,4,0l11.17-11.17v-2.59l0.85-0.85c2.46,2.14,5.66,3.44,9.15,3.44
		C55.36,48.67,61.64,42.39,61.64,34.68z M57.65,34.67c0,5.54-4.45,10-10,10c-5.54,0-10-4.45-10-10c0-5.54,4.45-10,10-10
		C53.19,24.67,57.65,29.13,57.65,34.67z"/>
</g>
</svg>
