<?xml version="1.0" encoding="utf-8"?>
<!-- Generator: Adobe Illustrator 23.0.3, SVG Export Plug-In . SVG Version: 6.00 Build 0)  -->
<svg version="1.1" id="Calque_1" xmlns="http://www.w3.org/2000/svg" xmlns:xlink="http://www.w3.org/1999/xlink" x="0px" y="0px"
	 viewBox="0 0 80 80" style="enable-background:new 0 0 80 80;" xml:space="preserve">
<style type="text/css">
	.st0{fill:none;stroke:#FFFFFF;stroke-width:2;stroke-miterlimit:10;}
	.st1{fill:#FFFFFF;}
</style>
<path class="st0" d="M68,75H12c-3.85,0-7-3.15-7-7V12c0-3.85,3.15-7,7-7h56c3.85,0,7,3.15,7,7v56C75,71.85,71.85,75,68,75z"/>
<g>
	<path class="st1" d="M25.86,25.86c-7.81,7.81-7.81,20.47,0,28.28s20.47,7.81,28.28,0s7.81-20.47,0-28.28S33.67,18.05,25.86,25.86z
		 M44.83,28.69l0,19.8c0,0.55-0.22,1.05-0.59,1.41s-0.86,0.59-1.41,0.59h-8.49c-1.11,0-2-0.89-2-2s0.89-2,2-2h6.49l0-17.8
		c0-1.11,0.89-2,2-2S44.83,27.58,44.83,28.69z"/>
</g>
</svg>
