<?xml version="1.0" encoding="utf-8"?>
<!-- Generator: Adobe Illustrator 23.0.3, SVG Export Plug-In . SVG Version: 6.00 Build 0)  -->
<svg version="1.1" id="Calque_1" xmlns="http://www.w3.org/2000/svg" xmlns:xlink="http://www.w3.org/1999/xlink" x="0px" y="0px"
	 viewBox="0 0 80 80" style="enable-background:new 0 0 80 80;" xml:space="preserve">
<style type="text/css">
	.st0{fill:none;stroke:#FFFFFF;stroke-width:2;stroke-miterlimit:10;}
	.st1{fill:#FFFFFF;}
</style>
<path class="st0" d="M68,75H12c-3.85,0-7-3.15-7-7V12c0-3.85,3.15-7,7-7h56c3.85,0,7,3.15,7,7v56C75,71.85,71.85,75,68,75z"/>
<g>
	<path class="st1" d="M24.44,30.1c-0.79,0.77-0.81,2.04-0.04,2.83c0.01,0.01,0.01,0.01,0.02,0.02L17.37,40
		c-1.56,1.56-1.56,4.09,0,5.66l8.49,8.49c1.56,1.56,4.1,1.56,5.66,0l22.63-22.63c1.56-1.56,1.56-4.1,0-5.66l-8.49-8.49
		c-1.56-1.56-4.09-1.56-5.66,0l-7.05,7.05c-0.78-0.78-2.05-0.78-2.83,0c-0.01,0.01-0.01,0.01-0.02,0.02L24.44,30.1z M37.17,37.17
		c0.78-0.78,2.05-0.78,2.83,0c0.78,0.78,0.78,2.05,0,2.83s-2.05,0.78-2.83,0S36.39,37.95,37.17,37.17z M30.73,59.01l3.62,3.62
		c1.56,1.56,4.09,1.56,5.66,0L62.63,40c1.56-1.56,1.56-4.09,0-5.66l-3.62-3.62c-0.35,1.32-1.01,2.58-2.04,3.62L34.34,56.97
		C33.31,58.01,32.05,58.66,30.73,59.01z"/>
</g>
</svg>
