<?xml version="1.0" encoding="utf-8"?>
<!-- Generator: Adobe Illustrator 23.0.3, SVG Export Plug-In . SVG Version: 6.00 Build 0)  -->
<svg version="1.1" id="Calque_1" xmlns="http://www.w3.org/2000/svg" xmlns:xlink="http://www.w3.org/1999/xlink" x="0px" y="0px"
	 viewBox="0 0 80 80" style="enable-background:new 0 0 80 80;" xml:space="preserve">
<style type="text/css">
	.st0{fill:none;stroke:#FFFFFF;stroke-width:2;stroke-miterlimit:10;}
	.st1{display:none;}
	.st2{display:inline;}
	.st3{fill:#FFFFFF;}
</style>
<path class="st0" d="M68,75H12c-3.85,0-7-3.15-7-7V12c0-3.85,3.15-7,7-7h56c3.85,0,7,3.15,7,7v56C75,71.85,71.85,75,68,75z"/>
<g class="st1">
	<path class="st2" d="M37.17,17.37l-19.8,19.8c-1.56,1.56-1.56,4.1,0,5.66l19.8,19.8c1.56,1.56,4.1,1.56,5.66,0l19.8-19.8
		c1.56-1.56,1.56-4.1,0-5.66l-19.8-19.8C41.27,15.81,38.73,15.81,37.17,17.37z"/>
</g>
<g id="XMLID_1_">
	<g id="XMLID_2_">
		<path class="st3" d="M49.68,37.88c1.48,4.09,0.77,9.09-3.7,10.88c-1.45,0.59-2.98,0.7-4.48,0.47v-3.06
			c0.85,0.18,1.71,0.21,2.56,0.03c2.44-0.51,3.31-2.38,3.31-4.42c0-1.04-0.23-2.12-0.58-3.1C46.13,36.86,49.03,36.08,49.68,37.88z"
			/>
		<path class="st3" d="M41.5,40.35c1.15,0.01,2.18,1.51,1.12,2.56c-0.38,0.38-0.75,0.75-1.12,1.13V40.35z"/>
		<path class="st3" d="M42.29,30.38c1.79,0.68,1.01,3.58-0.79,2.89v-3.16C41.77,30.19,42.03,30.28,42.29,30.38z"/>
		<path class="st3" d="M38.5,37.01v3.2c-0.82,0.82-1.65,1.65-2.47,2.47c0.19,0.23,0.39,0.45,0.59,0.65
			c0.23,0.24,0.46,0.45,0.72,0.67c0.39-0.39,0.77-0.78,1.16-1.17v5.46c-0.29-0.13-0.58-0.28-0.86-0.44
			c-0.72,0.72-1.42,1.47-2.15,2.19c-1.36,1.37-3.48-0.76-2.12-2.12c0.61-0.61,1.21-1.21,1.82-1.82c-0.24-0.21-0.47-0.43-0.69-0.65
			c-0.23-0.23-0.41-0.43-0.63-0.68c-0.6,0.61-1.18,1.25-1.79,1.86c-1.36,1.36-3.48-0.76-2.12-2.12c0.74-0.74,1.46-1.51,2.2-2.24
			c-1.4-2.64-1.96-5.78-0.72-8.53c1.35-2.99,4.14-4.18,7.06-4.12v3.03c-2.15-0.08-4.14,0.78-4.65,3.37c-0.27,1.35,0,2.74,0.56,4.03
			c0.89-0.89,1.79-1.78,2.68-2.67C37.53,36.94,38.04,36.86,38.5,37.01z"/>
		<path class="st3" d="M41.5,58.44c9.5-0.77,17-8.74,17-18.44s-7.5-17.67-17-18.44V58.44z M38.5,21.56c-9.5,0.77-17,8.74-17,18.44
			s7.5,17.67,17,18.44V21.56z M40,18.5c11.86,0,21.5,9.65,21.5,21.5c0,11.86-9.64,21.5-21.5,21.5c-11.85,0-21.5-9.64-21.5-21.5
			C18.5,28.15,28.15,18.5,40,18.5z"/>
	</g>
</g>
</svg>
