<?xml version="1.0" encoding="utf-8"?>
<!-- Generator: Adobe Illustrator 23.0.3, SVG Export Plug-In . SVG Version: 6.00 Build 0)  -->
<svg version="1.1" id="Calque_2" xmlns="http://www.w3.org/2000/svg" xmlns:xlink="http://www.w3.org/1999/xlink" x="0px" y="0px"
	 viewBox="0 0 80 80" style="enable-background:new 0 0 80 80;" xml:space="preserve">
<style type="text/css">
	.st0{fill:#FFFFFF;}
</style>
<g>
	<g>
		<circle class="st0" cx="40" cy="26.5" r="4.5"/>
	</g>
</g>
<g>
	<g>
		<path class="st0" d="M46.7,43.2l-1-8c-0.1-1.2-1.1-2-2.2-2h-1.2c-0.3,0-0.6,0.1-0.8,0.3L40,35l-1.5-1.5c-0.2-0.2-0.5-0.3-0.8-0.3
			h-1.2c-1.2,0-2.1,0.9-2.2,2l-1,8c0,0.3,0.1,0.6,0.3,0.9c0.2,0.2,0.5,0.4,0.8,0.4h1.2L36.5,56c0.1,1.2,1.1,2,2.2,2h2.5
			c1.2,0,2.1-0.9,2.2-2l0.9-11.5h1.2c0.3,0,0.6-0.1,0.8-0.4C46.7,43.9,46.8,43.6,46.7,43.2z"/>
	</g>
</g>
<g>
	<g>
		<circle class="st0" cx="51.3" cy="26.5" r="4.5"/>
	</g>
</g>
<g>
	<g>
		<path class="st0" d="M28.8,22c-2.5,0-4.5,2-4.5,4.5s2,4.5,4.5,4.5c2.5,0,4.5-2,4.5-4.5S31.2,22,28.8,22z"/>
	</g>
</g>
<g>
	<g>
		<path class="st0" d="M58,43.2l-1-8c-0.1-1.2-1.1-2-2.2-2h-1.2c-0.3,0-0.6,0.1-0.8,0.3L51.3,35l-1.5-1.5c-0.2-0.2-0.5-0.3-0.8-0.3
			h-1.2c-0.1,0-0.3,0-0.4,0.1c0.3,0.5,0.5,1.1,0.6,1.7l1,7.9c0.1,1-0.2,1.9-0.8,2.7c-0.3,0.4-0.7,0.6-1.1,0.8l0.7,7.3
			c0.1,1.2,1.1,2,2.2,2h2.5c1.2,0,2.1-0.9,2.2-2l0.9-9.2h1.2c0.3,0,0.6-0.1,0.8-0.4C57.9,43.9,58,43.6,58,43.2z"/>
	</g>
</g>
<g>
	<g>
		<path class="st0" d="M31.8,45.6c-0.6-0.7-0.9-1.7-0.8-2.7l1-8c0.1-0.6,0.3-1.1,0.6-1.6c-0.1,0-0.2-0.1-0.4-0.1H31
			c-0.3,0-0.6,0.1-0.8,0.3L28.8,35l-1.5-1.5c-0.2-0.2-0.5-0.3-0.8-0.3h-1.2c-1.2,0-2.1,0.9-2.2,2l-1,8c0,0.3,0.1,0.6,0.3,0.9
			c0.2,0.2,0.5,0.4,0.8,0.4h1.2l0.9,9.2c0.1,1.2,1.1,2,2.2,2H30c1.2,0,2.1-0.9,2.2-2l0.7-7.3C32.6,46.2,32.2,46,31.8,45.6z"/>
	</g>
</g>
</svg>
