<?xml version="1.0" encoding="utf-8"?>
<!-- Generator: Adobe Illustrator 23.0.3, SVG Export Plug-In . SVG Version: 6.00 Build 0)  -->
<svg version="1.1" id="Calque_1" xmlns="http://www.w3.org/2000/svg" xmlns:xlink="http://www.w3.org/1999/xlink" x="0px" y="0px"
	 viewBox="0 0 80 80" style="enable-background:new 0 0 80 80;" xml:space="preserve">
<style type="text/css">
	.st0{fill:#FFFFFF;}
</style>
<g>
	<path class="st0" d="M24,20c-2.21,0-4,1.79-4,4v24c0,2.21,1.79,4,4,4l24,0c2.21,0,4-1.79,4-4V24c0-2.21-1.79-4-4-4H24z M43.99,28
		c0.51,0,1.03,0.19,1.41,0.58c0.78,0.78,0.78,2.05,0,2.83l-10,10c-0.78,0.78-2.05,0.78-2.83,0l-6-6c-0.78-0.78-0.78-2.05,0-2.83
		s2.05-0.78,2.83,0L34,37.17l8.58-8.58C42.98,28.2,43.48,28,43.99,28z M57.99,28c-1.1,0-2,0.9-2,2l0.01,26L30,56c-1.1,0-2,0.9-2,2
		s0.9,2,2,2h25.99c2.21,0,4-1.79,4-4l0-25.99C60,28.9,59.1,28,57.99,28z"/>
</g>
</svg>
