<?xml version="1.0" encoding="utf-8"?>
<!-- Generator: Adobe Illustrator 23.0.3, SVG Export Plug-In . SVG Version: 6.00 Build 0)  -->
<svg version="1.1" id="Calque_1" xmlns="http://www.w3.org/2000/svg" xmlns:xlink="http://www.w3.org/1999/xlink" x="0px" y="0px"
	 viewBox="0 0 80 80" style="enable-background:new 0 0 80 80;" xml:space="preserve">
<style type="text/css">
	.st0{fill:#FFFFFF;}
</style>
<g>
	<path class="st0" d="M24.43,56.35c0.28,1.06,1.39,1.7,2.45,1.41s1.7-1.39,1.41-2.45l-1.04-3.86c-0.28-1.06-1.39-1.7-2.45-1.41
		c-1.06,0.28-1.7,1.39-1.41,2.45L24.43,56.35z M20.28,40.9c0.28,1.06,1.39,1.7,2.45,1.41c1.06-0.28,1.7-1.39,1.41-2.45L23.11,36
		c-0.28-1.06-1.39-1.7-2.45-1.41s-1.7,1.39-1.41,2.45L20.28,40.9z M32.67,56.22c0.28,1.06,1.39,1.7,2.45,1.41l3.86-1.04
		c0.57,2.13,2.76,3.4,4.9,2.83l15.45-4.14c1.06-0.28,1.7-1.39,1.41-2.45l-3.11-11.59c-0.28-1.06-1.39-1.7-2.45-1.41L43.6,42.93
		l-1.04-3.86l11.59-3.11c1.06-0.28,1.7-1.39,1.41-2.45l-3.11-11.59c-0.28-1.06-1.39-1.7-2.45-1.41l-15.45,4.14
		c-2.13,0.57-3.4,2.76-2.83,4.9l-3.86,1.04c-1.06,0.28-1.7,1.39-1.41,2.45l2.07,7.73c0.28,1.06,1.39,1.7,2.45,1.41l3.86-1.04
		L35.88,45l-3.86,1.04c-1.06,0.28-1.7,1.39-1.41,2.45C30.6,48.49,32.67,56.22,32.67,56.22z"/>
</g>
</svg>
