<?xml version="1.0" encoding="utf-8"?>
<!-- Generator: Adobe Illustrator 23.0.3, SVG Export Plug-In . SVG Version: 6.00 Build 0)  -->
<svg version="1.1" id="Calque_2" xmlns="http://www.w3.org/2000/svg" xmlns:xlink="http://www.w3.org/1999/xlink" x="0px" y="0px"
	 viewBox="0 0 80 80" style="enable-background:new 0 0 80 80;" xml:space="preserve">
<style type="text/css">
	.st0{fill:#FFFFFF;}
</style>
<g id="surface1">
	<path class="st0" d="M50.4,24.8h-0.3C49.6,23.2,48,22,46.2,22H29.6c-2.3,0-4.2,1.9-4.2,4.2v26.3c0,2.6,4.9,5.5,6.9,5.5h18
		c2.3,0,4.2-1.9,4.2-4.2V28.9C54.5,26.6,52.7,24.8,50.4,24.8z M32.4,28.1c0-3.3,2.8-3.4,2.8-3.4h9.7c0,0-2.8,0-2.8,3.4
		c0,2.3,0,14.6,0,14.6l-4.8-3.4l-4.8,3.4C32.4,42.8,32.4,30.4,32.4,28.1z M51.8,53.8c0,0.8-0.6,1.4-1.4,1.4h-18
		c-0.5,0-1.7-0.7-2.7-1.4h16.6c2.3,0,4.2-1.9,4.2-4.2V27.5c0.8,0,1.4,0.6,1.4,1.4V53.8z"/>
</g>
</svg>
