<?xml version="1.0" encoding="utf-8"?>
<!-- Generator: Adobe Illustrator 23.0.3, SVG Export Plug-In . SVG Version: 6.00 Build 0)  -->
<svg version="1.1" id="Calque_1" xmlns="http://www.w3.org/2000/svg" xmlns:xlink="http://www.w3.org/1999/xlink" x="0px" y="0px"
	 viewBox="0 0 80 80" style="enable-background:new 0 0 80 80;" xml:space="preserve">
<style type="text/css">
	.st0{fill:none;stroke:#FFFFFF;stroke-width:2;stroke-miterlimit:10;}
	.st1{fill:#FFFFFF;}
</style>
<path class="st0" d="M68,75H12c-3.85,0-7-3.15-7-7V12c0-3.85,3.15-7,7-7h56c3.85,0,7,3.15,7,7v56C75,71.85,71.85,75,68,75z"/>
<g>
	<path class="st1" d="M21.62,24.44c-0.37,0.37-0.59,0.87-0.59,1.41v8.49c0,1.11,0.9,2,2,2h8.49c0.81,0,1.54-0.49,1.85-1.23
		c0.31-0.75,0.14-1.61-0.43-2.18L30.1,30.1c5.48-5.48,14.32-5.48,19.8,0c1.45,1.45,2.5,3.14,3.19,4.95c0.36,1.05,1.5,1.6,2.54,1.24
		c1.05-0.36,1.6-1.5,1.24-2.54c-0.01-0.04-0.03-0.08-0.04-0.12c-0.87-2.31-2.23-4.5-4.1-6.36c-7.01-7.01-18.44-7.01-25.46,0
		l-2.83-2.83c-0.57-0.57-1.43-0.74-2.18-0.43C22.02,24.11,21.8,24.26,21.62,24.44z M23.63,44.2c-0.57,0.56-0.75,1.41-0.46,2.16
		c0.87,2.31,2.23,4.5,4.1,6.36c7.01,7.01,18.44,7.01,25.46,0l2.83,2.83c0.57,0.57,1.43,0.74,2.18,0.43c0.25-0.1,0.47-0.25,0.65-0.43
		c0.37-0.37,0.59-0.87,0.59-1.41v-8.49c0-1.11-0.89-2-2-2h-8.49c-0.81,0-1.54,0.49-1.85,1.23c-0.31,0.75-0.14,1.61,0.43,2.18
		l2.83,2.83c-5.48,5.48-14.32,5.48-19.8,0c-1.45-1.45-2.5-3.14-3.19-4.95c-0.38-1.04-1.52-1.58-2.56-1.2
		C24.08,43.85,23.84,44,23.63,44.2z"/>
</g>
</svg>
