<?xml version="1.0" encoding="utf-8"?>
<!-- Generator: Adobe Illustrator 23.0.3, SVG Export Plug-In . SVG Version: 6.00 Build 0)  -->
<svg version="1.1" id="Calque_1" xmlns="http://www.w3.org/2000/svg" xmlns:xlink="http://www.w3.org/1999/xlink" x="0px" y="0px"
	 viewBox="0 0 80 80" style="enable-background:new 0 0 80 80;" xml:space="preserve">
<style type="text/css">
	.st0{fill:#FFFFFF;}
</style>
<g>
	<path class="st0" d="M41.24,16.14c-0.75,0.31-1.24,1.04-1.24,1.85v4C30.08,22,22,30.08,22,40c-0.01,2.64,0.58,5.15,1.6,7.4
		c0.02,0.04,0.04,0.08,0.06,0.11c0.48,0.99,1.68,1.41,2.67,0.92c0.99-0.48,1.41-1.68,0.92-2.67C26.46,43.98,26,42.05,26,40
		c0-7.75,6.25-14,14-14L40,30c0,0.81,0.49,1.53,1.24,1.85c0.74,0.3,1.61,0.13,2.18-0.44l6-6c0.78-0.78,0.78-2.04,0-2.83l-6-6
		C43.03,16.19,42.52,16,42,16C41.74,16,41.48,16.05,41.24,16.14z M53.72,31.57c-1,0.47-1.43,1.65-0.96,2.66
		C53.55,36,54,37.94,54,39.99c0,7.75-6.25,14-14,14l0-4c0-0.81-0.49-1.53-1.24-1.85c-0.74-0.3-1.61-0.13-2.18,0.44l-6,6
		c-0.78,0.78-0.78,2.04,0,2.83l6,6c0.38,0.38,0.89,0.58,1.41,0.58c0.25,0,0.52-0.05,0.76-0.16C39.51,63.53,40,62.8,40,61.99l0-4
		c9.92-0.01,18-8.09,18-18c0.01-2.64-0.58-5.15-1.6-7.4c-0.33-0.74-1.05-1.21-1.85-1.2C54.26,31.4,53.98,31.46,53.72,31.57z"/>
</g>
</svg>
