<?xml version="1.0" encoding="utf-8"?>
<!-- Generator: Adobe Illustrator 23.0.3, SVG Export Plug-In . SVG Version: 6.00 Build 0)  -->
<svg version="1.1" id="Calque_6" xmlns="http://www.w3.org/2000/svg" xmlns:xlink="http://www.w3.org/1999/xlink" x="0px" y="0px"
	 viewBox="0 0 300 200" style="enable-background:new 0 0 300 200;" xml:space="preserve">
<style type="text/css">
	.st0{fill:#FF4713;}
	.st1{fill:#FFFFFF;}
</style>
<g>
	<rect x="50" y="82.56" class="st0" width="200" height="34.88"/>
	<g>
		<g>
			<path class="st1" d="M230.26,100.49c2.27,0,3.64-1.72,3.64-3.97c0-2.25-1.35-3.9-3.52-3.9h-2.99v7.87H230.26z M219.3,87.86h11.52
				c6.32,0,10.7,3.39,10.7,8.56c0,5.32-4.38,8.96-10.61,8.96h-3.51v6.64h-8.09V87.86z"/>
			<rect x="209.22" y="106.98" class="st1" width="4.98" height="5.14"/>
			<path class="st1" d="M107.19,100.54c2.28,0,3.66-1.73,3.66-3.99c0-2.26-1.35-3.92-3.54-3.92h-3.27v7.91H107.19z M95.98,87.83
				h11.77c6.35,0,10.76,3.41,10.76,8.6c0,5.35-4.41,9-10.67,9h-3.8v6.62h-8.06V87.83z"/>
			<path class="st1" d="M146.18,99.98c0,8.9-6.33,12.51-12.86,12.51c-6.54,0-12.86-3.61-12.86-12.51c0-8.93,6.32-12.55,12.86-12.55
				C139.85,87.44,146.18,91.05,146.18,99.98z M128.53,99.98c0,3.54,2.28,5.97,4.78,5.97c2.5,0,4.78-2.42,4.78-5.97
				c0-3.54-2.29-6-4.78-6C130.82,93.98,128.53,96.44,128.53,99.98z"/>
			<path class="st1" d="M148.56,87.95h8.11v24.12h-8.11V87.95z"/>
			<path class="st1" d="M160.75,87.95h9.31l7.1,13.27h-0.2V87.95h7.81v24.12h-9.62l-7.2-13.02h-0.06v13.02h-7.15V87.95z"/>
			<path class="st1" d="M186.97,87.95h22.23v6.33h-7.23v17.79h-8.08V94.28h-6.92V87.95z"/>
		</g>
		<g>
			<polygon class="st1" points="66.93,95.89 76.24,90.48 73.93,89.15 64.59,94.54 64.59,105.32 66.92,106.66 			"/>
			<polygon class="st1" points="71.58,109.37 69.25,108.01 69.25,97.27 78.57,91.85 80.9,93.18 71.58,98.56 			"/>
			<polygon class="st1" points="73.93,110.73 73.93,99.95 83.23,94.56 83.23,102.55 77.43,105.95 77.43,103.33 80.9,101.31 
				80.9,98.53 76.24,101.24 76.24,109.39 			"/>
			<path class="st1" d="M73.94,112.04c-6.65,0-12.03-5.39-12.03-12.04c0-6.65,5.39-12.03,12.03-12.03s12.03,5.39,12.03,12.03
				C85.97,106.65,80.59,112.04,73.94,112.04z M88.01,100.01c0-7.77-6.3-14.07-14.07-14.07c-7.77,0-14.08,6.3-14.08,14.07
				s6.3,14.08,14.08,14.08C81.71,114.08,88.01,107.78,88.01,100.01z"/>
		</g>
	</g>
</g>
</svg>
