<?xml version="1.0" encoding="utf-8"?>
<!-- Generator: Adobe Illustrator 23.0.3, SVG Export Plug-In . SVG Version: 6.00 Build 0)  -->
<svg version="1.1" id="Calque_2" xmlns="http://www.w3.org/2000/svg" xmlns:xlink="http://www.w3.org/1999/xlink" x="0px" y="0px"
	 viewBox="0 0 300 200" style="enable-background:new 0 0 300 200;" xml:space="preserve">
<style type="text/css">
	.st0{fill:#8DC63F;}
	.st1{fill:#0050A3;}
</style>
<g id="g36">
	<g id="g42" transform="translate(301.3909,479.1039)">
		<path id="path44" class="st0" d="M-129.22-469.1c-7.42,0-14.2,3.01-19.08,8c1.84,1.65,3.94,3.51,5.85,5.12
			c3.44-3.36,8.12-5.39,13.24-5.39c10.46,0,18.96,8.51,18.96,18.96c0,5.14-1.93,9.78-5.57,13.42l-35.6,35.66l-29.45-29.49
			c-2.74,0.94-5.55,1.7-8.72,2.22l35.43,35.48c0.73,0.73,1.95,1.62,2.74,1.62c0.82,0,2.01-0.89,2.74-1.62l38.34-38.4
			c5.12-5.13,7.83-11.66,7.83-18.89C-102.52-457.12-114.5-469.1-129.22-469.1"/>
	</g>
	<g id="g46" transform="translate(355.5817,418.1956)">
		<path id="path48" class="st1" d="M-145.28-365.34c-3.61-0.61-7.03-1.34-10.33-2.19c-1.94,3.24-3.02,4.65-4.91,6.7
			c2.69,0.77,5.44,1.47,8.29,2.06c-0.39,0.61-0.77,1.21-1.15,1.8c-12.84,20.15-21.44,33.67-8.68,59.5c-2.62,2.94-6.6,5.8-11.67,8.39
			c-7.28-2.87-13.85-4.32-19.55-4.32c-11.27,0-17.45,5.65-19.91,11.85c-19.11-1.73-30.94-11.43-35.25-15.66
			c8.69-14.14,10.92-27.35,6.61-39.3c-4.63-12.83-16.06-19.87-22.88-22.9c-0.11-1.11-0.26-3.42-0.45-4.7
			c3.67,0.66,7.32,0.99,10.91,0.99h0c16.33,0,32.17-7,46.18-20.32c-1.73-1.34-3.66-3.02-5.84-5.11
			c-12.48,11.74-26.02,17.69-40.34,17.69h0c-4.79,0-9.72-0.68-14.67-2.03c-1.29-0.35-3.44-0.88-4.44,0.06
			c-0.97,0.91-0.64,3.12-0.37,4.43c0.77,3.85,1.39,9.89,1.45,11.71c0.08,2.66,0.3,2.85,2.76,3.71c2.88,1.01,15.76,6.17,20.42,19.1
			c3.69,10.25,1.18,22-7.43,34.98c-1.43,2.15-1.36,2.54,0.19,4.55c0.62,0.8,15.73,19.32,45.82,20.75c3.58,0.17,3.39-0.19,3.97-3.15
			c1.12-5.65,5.91-8.9,13.28-8.9c5.09,0,11.2,1.53,18.22,4.39c1.49,0.61,1.7,0.61,3.16-0.08c8.18-3.89,14.09-8.44,17.59-13.45
			c1.26-1.81,1.24-2.17,0.25-4.03c-12.35-23.33-5.79-33.59,7.21-53.99c1.35-2.12,2.76-4.34,4.22-6.67
			C-141.04-362.02-140.78-364.58-145.28-365.34"/>
	</g>
	<g id="g50" transform="translate(212.5397,433.129)">
		<path id="path52" class="st1" d="M-102.89-390.78c-0.56-1.81-0.86-3.7-0.86-5.64c0-10.46,8.51-18.96,18.96-18.96
			c4.32,0,8.33,1.43,11.55,3.92c6.6,5.34,9.43,8.58,14.55,12.94c8.09,6.88,16.54,12.45,24.93,16.54c1.47-1.55,3.44-3.7,5.47-5.98
			c-8.9-4.06-18.56-10.61-26.45-17.37c-4.33-3.72-9.72-8.65-11.37-10.18c0,0,0,0,0,0c-4.85-4.75-11.46-7.61-18.68-7.61
			c-14.72,0-26.7,11.98-26.7,26.71c0,2.17,0.26,4.3,0.76,6.35C-108.19-390.06-105.44-390.31-102.89-390.78"/>
	</g>
</g>
<g id="g110">
	<path id="path156" class="st1" d="M239.1,189.32c-1.19,0.4-2.98,0.66-4.34,0.66c-3.38,0-5.88-1.48-5.88-6.39
		c0-4.82,2.2-6.25,5.65-6.25c3.98,0,5.72,1.22,5.39,7.38h-7.34c0.05,1.92,0.91,2.27,2.65,2.27c0.87,0,2.44-0.17,3.33-0.4
		L239.1,189.32z M232.61,182.06h4.17c-0.05-1.66-0.59-2.01-1.99-2.01C233.29,180.05,232.82,180.54,232.61,182.06"/>
	<path id="path152" class="st1" d="M227.57,189.37c-0.96,0.4-2.58,0.61-3.77,0.61c-3.59,0-5.98-1.48-5.98-6.39
		c0-4.87,2.41-6.25,5.98-6.25c1.24,0,2.84,0.19,3.77,0.52l-0.75,3.04c-0.68-0.26-1.73-0.49-2.72-0.49c-1.76,0-2.65,0.3-2.65,3.25
		c0,2.81,0.89,3.23,2.65,3.23c1.03,0,2.04-0.26,2.72-0.54L227.57,189.37z"/>
	<path id="path148" class="st1" d="M207.9,189.65h-3.61v-11.24c1.55-0.56,3.94-1.08,6.09-1.08c3.31,0,4.95,1.38,4.95,5.69v6.63
		h-3.61v-6.35c0-2.18-0.35-2.76-2.11-2.76c-0.59,0-1.13,0.07-1.71,0.21V189.65z"/>
	<path id="path144" class="st1" d="M201.31,189.04c-1.62,0.58-3.94,0.94-5.7,0.94c-3.96,0-5.13-0.84-5.13-3.98
		c0-3.37,1.83-3.91,4.69-3.91c0.89,0,1.8,0.12,2.72,0.3c0-1.66-0.38-2.13-2.72-2.13c-1.38,0-2.72,0.26-3.73,0.56l-0.56-2.86
		c1.38-0.35,3.38-0.63,5.16-0.63c3.59,0,5.27,1.1,5.27,4.66V189.04z M195.9,187.31c0.68,0,1.43-0.12,1.99-0.33v-2.27
		c-0.54-0.14-1.22-0.16-1.95-0.16c-1.29,0-1.76,0.14-1.76,1.33C194.19,187.1,194.49,187.31,195.9,187.31"/>
	<path id="path140" class="st1" d="M181.65,177.66h3.61v0.94c0.4-0.7,1.17-1.27,2.91-1.27c0.35,0,0.77,0.02,1.2,0.07v3.35
		c-0.47-0.14-1.1-0.19-1.69-0.19c-1.29,0-2.41,0.42-2.41,1.22v7.87h-3.61V177.66z"/>
	<path id="path128" class="st1" d="M180.1,173.33v3.3h-8.13v3.79h6.02v3.23h-6.02v5.99h-3.77v-16.32H180.1z"/>
	<path id="path124" class="st1" d="M159.47,181.27h6.16v3.44h-6.16V181.27z"/>
	<path id="path122" class="st1" d="M157.1,189.32c-1.19,0.4-2.98,0.66-4.34,0.66c-3.38,0-5.88-1.48-5.88-6.39
		c0-4.82,2.2-6.25,5.65-6.25c3.98,0,5.72,1.22,5.39,7.38h-7.34c0.05,1.92,0.91,2.27,2.65,2.27c0.87,0,2.44-0.17,3.33-0.4
		L157.1,189.32z M150.61,182.06h4.17c-0.05-1.66-0.58-2.01-1.99-2.01C151.29,180.05,150.82,180.54,150.61,182.06"/>
	<path id="path118" class="st1" d="M144.26,189.13c-1.31,0.49-3.56,0.84-5.44,0.84c-4.08,0-5.9-1.45-5.9-6.37
		c0-4.82,2.11-6.27,5.09-6.27c1.17,0,1.97,0.24,2.65,0.52v-5.1h3.61L144.26,189.13z M140.65,181.17c0-0.52-0.82-0.91-1.88-0.91
		c-1.69,0-2.23,0.75-2.23,3.3c0,2.9,0.56,3.4,2.27,3.4c0.61,0,1.38-0.09,1.83-0.28C140.65,186.67,140.65,181.17,140.65,181.17z"/>
	<path id="path106" class="st1" d="M125.04,181.27h6.16v3.44h-6.16V181.27z"/>
	<path id="path104" class="st1" d="M122.64,180.66c-0.94-0.26-2.32-0.51-3.54-0.51c-1.13,0-1.69,0.09-1.69,1.03
		c0,0.63,0.33,0.8,2.18,1.03c2.79,0.35,4.03,1.19,4.03,3.65c0,3.26-2.34,4.12-5.37,4.12c-1.29,0-3.16-0.26-4.27-0.66l0.7-2.72
		c0.89,0.26,2.23,0.49,3.4,0.49c1.41,0,2.06-0.12,2.06-1.06c0-0.65-0.4-0.91-2.39-1.1c-2.51-0.23-3.84-0.96-3.84-3.51
		c0-3.25,2.32-4.1,5.32-4.1c1.29,0,2.98,0.26,4.1,0.66L122.64,180.66z"/>
	<path id="path100" class="st1" d="M108.79,180.75v4.47c0,1.22,0.35,1.71,1.62,1.71c0.75,0,1.36-0.14,1.92-0.33l0.59,2.76
		c-0.89,0.37-2.32,0.61-3.61,0.61c-2.65,0-4.12-0.8-4.12-4.38v-4.85h-1.95v-3.09h1.95v-1.78l3.61-1.45v3.23h3.75v3.09H108.79z"/>
	<path id="path96" class="st1" d="M97.94,177.66h3.56v11.26c-1.52,0.54-3.94,1.08-6.07,1.08c-3.33,0-4.92-1.41-4.92-5.69v-6.65h3.56
		v6.37c0,2.15,0.38,2.76,2.13,2.76c0.59,0,1.1-0.09,1.73-0.23V177.66z"/>
	<path id="path92" class="st1" d="M87.62,189.04c-1.62,0.58-3.94,0.94-5.7,0.94c-3.96,0-5.13-0.84-5.13-3.98
		c0-3.37,1.83-3.91,4.69-3.91c0.89,0,1.8,0.12,2.72,0.3c0-1.66-0.38-2.13-2.72-2.13c-1.38,0-2.72,0.26-3.73,0.56l-0.56-2.86
		c1.38-0.35,3.37-0.63,5.16-0.63c3.59,0,5.27,1.1,5.27,4.66V189.04z M82.21,187.31c0.68,0,1.43-0.12,1.99-0.33v-2.27
		c-0.54-0.14-1.22-0.16-1.95-0.16c-1.29,0-1.76,0.14-1.76,1.33C80.49,187.1,80.8,187.31,82.21,187.31"/>
	<path id="path80" class="st1" d="M63.87,189.65H60.1v-16.32h3.77v5.95h6.14v-5.95h3.77v16.32h-3.77v-6.88h-6.14V189.65z"/>
</g>
<g id="g74" transform="translate(215.0305,258.6732)">
	<path id="path56" class="st0" d="M-143.69-93.57h-3.58c-1.92-3.38-2.81-4.43-3.58-4.43h-1.28v4.43h-2.87v-12.41h6.92
		c2.55,0,3.4,1.58,3.4,3.63c0,1.78-0.75,3.33-3.1,3.45C-146.93-98.59-146-97.47-143.69-93.57 M-152.13-100.35h3.19
		c0.62,0,1.09-0.45,1.09-1.55c0-1.12-0.41-1.64-1.05-1.64h-3.22C-152.13-103.54-152.13-100.35-152.13-100.35z"/>
	<path id="path60" class="st0" d="M-135.02-93.82c-0.91,0.3-2.26,0.5-3.29,0.5c-2.56,0-4.47-1.12-4.47-4.86
		c0-3.67,1.67-4.75,4.29-4.75c3.03,0,4.34,0.92,4.09,5.61h-5.57c0.04,1.46,0.69,1.73,2.01,1.73c0.66,0,1.85-0.12,2.53-0.3
		L-135.02-93.82z M-140.11-103.68l2.19-2.3h2.79l-2.67,2.3H-140.11z M-139.95-99.34h3.17c-0.04-1.27-0.44-1.53-1.51-1.53
		C-139.44-100.87-139.79-100.49-139.95-99.34"/>
	<path id="path64" class="st0" d="M-129.22-93.37c-2.35,0-3.67-1-3.67-4.68c0-3.72,1.39-4.88,4.49-4.88c1.42,0,3.13,0.27,4.13,0.64
		v7.99c0,3.65-2.15,4.36-5.04,4.36c-1.18,0-2.49-0.23-3.33-0.53l0.48-2.14c0.94,0.25,1.85,0.41,2.79,0.41
		c1.48,0,2.35-0.37,2.35-1.69C-127.55-93.62-128.33-93.37-129.22-93.37 M-127.01-100.51c-0.43-0.18-0.98-0.25-1.39-0.25
		c-1.3,0-1.73,0.32-1.73,2.65c0,1.92,0.37,2.44,1.65,2.44c0.8,0,1.46-0.25,1.46-0.64V-100.51z"/>
	<path id="path68" class="st0" d="M-119.01-105.34c0,1.23-0.39,1.44-1.55,1.44c-1.18,0-1.55-0.21-1.55-1.44
		c0-1.12,0.37-1.3,1.55-1.3C-119.4-106.64-119.01-106.46-119.01-105.34 M-119.18-93.57h-2.74v-9.12h2.74
		C-119.18-102.68-119.18-93.57-119.18-93.57z"/>
	<path id="path72" class="st0" d="M-117.23-98.18c0-3.72,1.51-4.75,4.41-4.75c2.96,0,4.45,1.03,4.45,4.75
		c0,3.74-1.48,4.86-4.45,4.86C-115.75-93.32-117.23-94.44-117.23-98.18 M-114.47-98.13c0,2.3,0.37,2.67,1.65,2.67
		c1.3,0,1.67-0.37,1.67-2.67c0-2.39-0.37-2.67-1.67-2.67C-114.09-100.8-114.47-100.51-114.47-98.13"/>
	<path id="path76" class="st0" d="M-103.63-93.57h-2.74v-8.55c1.18-0.43,2.99-0.82,4.63-0.82c2.51,0,3.76,1.05,3.76,4.33v5.04h-2.74
		v-4.83c0-1.65-0.27-2.1-1.6-2.1c-0.44,0-0.85,0.05-1.3,0.16V-93.57z"/>
</g>
</svg>
