<?xml version="1.0" encoding="utf-8"?>
<!-- Generator: Adobe Illustrator 23.0.3, SVG Export Plug-In . SVG Version: 6.00 Build 0)  -->
<svg version="1.1" xmlns="http://www.w3.org/2000/svg" xmlns:xlink="http://www.w3.org/1999/xlink" x="0px" y="0px"
	 viewBox="0 0 250 120" style="enable-background:new 0 0 250 120;" xml:space="preserve">
<style type="text/css">
	.st0{fill:#E08D1E;}
	.st1{fill:#4C4848;}
</style>
<g id="Calque_1">
	<g id="Calque_2">
		<path class="st0" d="M21.5,89.3h6.6c2.2,0,3.2,0.2,4.1,0.6c2,0.9,3.3,2.9,3.3,5.6c0,2.4-1.3,4.7-3.5,5.6v0.1c0,0,0.3,0.3,0.7,1
			l4.2,7.6h-4.1l-4-7.6h-3.6v7.6h-3.7C21.5,109.7,21.5,89.3,21.5,89.3z M28.5,98.8c2,0,3.2-1.2,3.2-3.2c0-1.9-0.8-3.2-3.7-3.2h-2.8
			v6.4C25.2,98.8,28.5,98.8,28.5,98.8z"/>
		<rect x="40.4" y="89.3" class="st0" width="3.7" height="20.4"/>
		<path class="st0" d="M58.4,88.9c5,0,7.5,2.8,7.5,2.8l-1.8,2.8c0,0-2.3-2.2-5.6-2.2c-4.3,0-6.8,3.2-6.8,7c0,3.9,2.6,7.3,6.9,7.3
			c3.5,0,5.9-2.6,5.9-2.6l1.9,2.7c0,0-2.8,3.3-8,3.3c-6.2,0-10.5-4.6-10.5-10.6C47.9,93.4,52.4,88.9,58.4,88.9"/>
		<path class="st0" d="M78.9,88.9c6,0,10.6,4.6,10.6,10.4c0,6-4.5,10.7-10.6,10.7s-10.6-4.7-10.6-10.7
			C68.3,93.5,72.9,88.9,78.9,88.9 M78.9,106.6c3.7,0,6.7-3.1,6.7-7.3c0-4-3-7-6.7-7c-3.7,0-6.7,3-6.7,7
			C72.2,103.5,75.1,106.6,78.9,106.6"/>
		<path class="st0" d="M110.3,89.3h6.6c2.2,0,3.2,0.2,4.1,0.6c2,0.9,3.3,2.9,3.3,5.6c0,2.4-1.3,4.7-3.4,5.6v0.1c0,0,0.3,0.3,0.7,1
			l4.2,7.6h-4.1l-4.1-7.6h-3.6v7.6h-3.7C110.4,109.7,110.4,89.3,110.3,89.3z M117.4,98.8c2,0,3.2-1.2,3.2-3.2c0-1.9-0.8-3.2-3.7-3.2
			h-2.8v6.4C114.1,98.8,117.4,98.8,117.4,98.8z"/>
		<path class="st0" d="M139.4,104.4h-7.2l-1.7,5.2h-3.8l7.2-20.4h3.9l7.2,20.4h-3.8L139.4,104.4z M135.8,92.8c0,0-0.5,2-0.9,3.2
			l-1.8,5.5h5.4l-1.8-5.5C136.3,94.8,135.9,92.8,135.8,92.8L135.8,92.8z"/>
		<path class="st0" d="M144.1,89.3h4l4.5,13.3c0.4,1.2,0.8,3,0.8,3h0.1c0,0,0.4-1.8,0.8-3l4.5-13.3h4l-7.4,20.4h-3.7L144.1,89.3z"/>
		<path class="st0" d="M174.3,88.9c6,0,10.6,4.6,10.6,10.4c0,6-4.5,10.7-10.6,10.7c-6,0-10.6-4.7-10.6-10.7
			C163.7,93.5,168.3,88.9,174.3,88.9 M174.3,106.6c3.7,0,6.7-3.1,6.7-7.3c0-4-3-7-6.7-7c-3.7,0-6.7,3-6.7,7
			C167.6,103.5,170.6,106.6,174.3,106.6"/>
		<path class="st0" d="M206.2,89.3h6.6c2.2,0,3.2,0.2,4.1,0.6c2,0.9,3.3,2.9,3.3,5.6c0,2.4-1.3,4.7-3.4,5.6v0.1c0,0,0.3,0.3,0.7,1
			l4.2,7.6h-4.1l-4.1-7.6H210v7.6h-3.7V89.3z M213.3,98.8c2,0,3.2-1.2,3.2-3.2c0-1.9-0.8-3.2-3.7-3.2h-2.8v6.4
			C209.9,98.8,213.3,98.8,213.3,98.8z"/>
		<path class="st0" d="M234.2,88.9c6,0,10.6,4.6,10.6,10.4c0,6-4.5,10.7-10.6,10.7c-6,0-10.6-4.7-10.6-10.7
			C223.6,93.5,228.2,88.9,234.2,88.9 M234.2,106.6c3.7,0,6.7-3.1,6.7-7.3c0-4-3-7-6.7-7c-3.7,0-6.7,3-6.7,7
			C227.4,103.5,230.4,106.6,234.2,106.6"/>
		<path class="st0" d="M132.6,28.3L132.6,28.3v-5L102.7,10L69,24.9v54.3h4.6V27.9l29.1-12.9v34.9l20.7-14.5l9.4,6.6L132.6,28.3
			L132.6,28.3z M102.7,15.1L102.7,15.1"/>
		<polygon class="st0" points="78,38.5 98.2,29.5 98.2,24.3 78,33.3 		"/>
		<polygon class="st0" points="78,52.9 98.2,44 98.2,38.8 78,47.7 		"/>
		<rect x="112.6" y="55.7" class="st0" width="7.2" height="7.2"/>
		<rect x="123.3" y="65.2" class="st0" width="7.2" height="7.2"/>
	</g>
</g>
<g id="Calque_3">
	<path class="st1" d="M9,97.6h1.4c1.6,0,2.5-1.2,2.5-2.6c0-1.5-0.9-2.5-2.6-2.5h-5v-3.2h5.1c3.7,0,6.3,1.9,6.3,5.3
		c0,1.9-0.9,3.5-2.5,4.4v0.1c2.2,0.7,3.3,2.7,3.3,4.8c0,4.1-3.3,5.9-7,5.9H7.5v-3.2h3.2c1.9,0,3-1.2,3-3c0-1.7-1.1-2.9-3-2.9H9V97.6
		z"/>
	<polygon class="st1" points="97.2,92.4 91.3,92.4 91.3,89.3 106.9,89.3 106.9,92.4 100.9,92.4 100.9,109.7 97.2,109.7 	"/>
	<path class="st1" d="M195.8,99.4c2.2,0,3.4-1.4,3.4-3.5c0-2.1-1.3-3.4-3.4-3.4h-7.2v-3.2h7.9c3.8,0,6.5,2.7,6.5,6.6
		s-2.7,6.7-6.5,6.7h-4.2v7h-3.7V99.4H195.8z"/>
	<polygon class="st1" points="177.8,31.1 146.4,17.2 137.3,21.3 137.3,26.3 146.4,22.3 146.4,22.3 146.4,51.6 157.1,59.1 
		149.2,59.1 149.2,79.2 176.3,79.2 176.3,79.2 177.8,79.2 	"/>
	<rect x="112.6" y="65.2" class="st1" width="7.2" height="7.2"/>
	<rect x="123.3" y="55.7" class="st1" width="7.2" height="7.2"/>
</g>
</svg>
