<?xml version="1.0" encoding="utf-8"?>
<!-- Generator: Adobe Illustrator 23.0.3, SVG Export Plug-In . SVG Version: 6.00 Build 0)  -->
<svg version="1.1" id="Calque_5" xmlns="http://www.w3.org/2000/svg" xmlns:xlink="http://www.w3.org/1999/xlink" x="0px" y="0px"
	 viewBox="0 0 300 200" style="enable-background:new 0 0 300 200;" xml:space="preserve">
<style type="text/css">
	.st0{fill:#005D9E;}
	.st1{clip-path:url(#SVGID_2_);fill:#FFDD12;}
	.st2{fill:#FFDD12;}
	.st3{clip-path:url(#SVGID_4_);fill:#FFDD12;}
	.st4{fill:#C2004D;}
	.st5{fill:#FFFFFF;}
	.st6{fill:#8EA3B9;}
	.st7{fill:#ED7203;}
	.st8{fill:#BBCE00;}
</style>
<rect x="20" y="81.16" class="st0" width="150.49" height="37.62"/>
<g>
	<defs>
		<rect id="SVGID_1_" x="20" y="81.16" width="260" height="37.68"/>
	</defs>
	<clipPath id="SVGID_2_">
		<use xlink:href="#SVGID_1_"  style="overflow:visible;"/>
	</clipPath>
	<path class="st1" d="M45.21,100.07c0,2.29,1.34,4.01,3.63,4.01c2.29,0,3.63-1.72,3.63-4.01c0-2.1-1.34-4.01-3.63-4.01
		C46.55,96.06,45.21,97.97,45.21,100.07 M56.67,107.9h-4.77v-1.91c-0.96,1.72-2.67,2.29-4.2,2.29c-4.2,0-7.07-3.82-7.07-8.21
		c0-4.39,2.86-8.21,7.07-8.21c1.53,0,3.25,0.57,4.2,1.91v-1.53h4.77V107.9z"/>
</g>
<polygon class="st2" points="76.53,107.9 71.37,107.9 71.37,96.25 69.85,96.25 69.85,92.24 71.37,92.24 71.37,88.23 76.53,88.23 
	76.53,92.24 79.01,92.24 79.01,96.25 76.53,96.25 "/>
<g>
	<defs>
		<rect id="SVGID_3_" x="20" y="81.16" width="260" height="37.68"/>
	</defs>
	<clipPath id="SVGID_4_">
		<use xlink:href="#SVGID_3_"  style="overflow:visible;"/>
	</clipPath>
	<path class="st3" d="M83.6,100.07c0,2.29,1.34,4.01,3.63,4.01c2.48,0,3.82-1.72,3.82-4.01c0-2.29-1.34-4.01-3.82-4.01
		C84.93,96.06,83.6,97.78,83.6,100.07 M95.63,100.07c0,5.35-3.82,8.21-8.4,8.21c-4.39,0-8.21-2.86-8.21-8.21
		c0-5.35,3.82-8.21,8.21-8.21C91.81,91.86,95.63,94.72,95.63,100.07"/>
	<path class="st3" d="M101.55,94.53L101.55,94.53c1.15-1.91,2.67-2.48,3.82-2.48h0.19v4.97c-3.25,0-4.01,1.72-4.01,4.58v6.3h-4.97
		V92.24h4.97V94.53z"/>
	<path class="st3" d="M128.09,94.34L128.09,94.34c1.15-1.72,2.48-2.48,4.2-2.48c1.72,0,2.86,0.57,3.82,2.48
		c0.76-1.72,2.1-2.67,3.82-2.67c3.25,0,4.39,2.67,4.39,5.92v10.31h-4.77v-7.64c0-1.72,0.19-4.01-1.53-4.01
		c-1.91,0-1.72,2.1-1.72,4.01v7.64h-4.77v-7.64c0-1.72,0.19-4.01-1.72-4.01c-2.1,0-1.72,2.29-1.72,4.01v7.64h-4.58V92.43h4.58V94.34
		z"/>
	<path class="st3" d="M40.44,97.4c-0.76-0.57-1.91-1.34-3.06-1.34c-2.1,0-3.82,1.72-3.82,4.01c0,2.48,1.53,4.2,4.01,4.2
		c0.96,0,2.1-0.76,2.86-1.53v4.58c-1.15,0.57-2.48,0.95-3.82,0.95c-4.39,0-8.02-3.25-8.02-8.02c0-4.97,3.63-8.4,8.4-8.4
		c1.15,0,2.29,0.38,3.44,0.95V97.4z"/>
	<path class="st3" d="M110.14,100.07c0,2.29,1.53,4.01,3.82,4.01c2.29,0,3.63-1.72,3.63-4.01c0-2.29-1.34-4.01-3.63-4.01
		C111.67,96.06,110.14,97.78,110.14,100.07 M121.79,107.9h-4.78v-1.91c-0.95,1.72-2.67,2.29-4.2,2.29c-4.2,0-7.07-3.82-7.07-8.21
		c0-4.39,2.86-8.21,7.07-8.21c1.53,0,3.25,0.57,4.2,1.91v-1.53h4.78V107.9z"/>
	<path class="st3" d="M149.49,100.07c0,2.29,1.34,4.01,3.63,4.01c2.29,0,3.63-1.72,3.63-4.01c0-2.29-1.34-4.01-3.63-4.01
		C150.82,96.06,149.49,97.78,149.49,100.07 M160.94,107.9h-4.77v-1.91c-0.95,1.72-2.67,2.29-4.2,2.29c-4.01,0-6.87-3.82-6.87-8.21
		c0-4.39,2.67-8.21,6.87-8.21c1.53,0,3.25,0.57,4.2,1.91v-1.53h4.77V107.9z"/>
	<path class="st3" d="M67.36,96.25c-0.76-0.38-1.91-0.76-2.67-0.76c-0.57,0-1.53,0.38-1.53,1.15c0,0.95,1.53,1.15,2.1,1.34
		c2.29,0.57,4.2,1.72,4.2,4.58c0,4.2-3.44,5.92-6.68,5.92c-1.91,0-3.82-0.76-5.54-1.91l1.72-3.82c0.95,0.77,2.67,1.53,4.01,1.53
		c0.57,0,1.53-0.19,1.53-1.15c0-1.15-1.53-1.34-3.25-1.72c-1.53-0.38-3.06-1.34-3.06-4.2c0-3.82,3.06-5.54,6.11-5.54
		c1.72,0,3.25,0.38,4.58,1.15L67.36,96.25z"/>
</g>
<rect x="177.5" y="81.22" class="st4" width="20.37" height="37.62"/>
<g>
	<path class="st5" d="M182.18,88.19h2.37c1.81,0,2.81,1.08,2.81,2.89v5.24c0,2.08-1.07,3.07-2.96,3.07h-2.23V88.19z M183.78,97.88
		h0.74c0.9,0,1.24-0.44,1.24-1.4v-5.39c0-0.88-0.3-1.38-1.24-1.38h-0.74V97.88z"/>
	<path class="st5" d="M188.88,88.19h4.78v1.51h-3.18v3.29h2.77v1.51h-2.77v3.29h3.18v1.6h-4.78V88.19z M191.58,85.47h1.7l-2.07,2.22
		h-1.04L191.58,85.47z"/>
</g>
<g>
	<path class="st5" d="M186.98,110.36c0,1.38-1.12,2.59-2.55,2.59c-1.23,0-2.64-0.6-2.64-2.64v-6.16c0-1.46,1.05-2.58,2.61-2.58
		c1.48,0,2.58,1.12,2.58,2.67v0.63h-1.6v-0.53c0-0.63-0.38-1.16-0.99-1.16c-0.8,0-0.99,0.55-0.99,1.31v5.72
		c0,0.64,0.25,1.15,0.97,1.15c0.44,0,1.01-0.25,1.01-1.13v-0.55h1.6V110.36z"/>
	<path class="st5" d="M188.19,104.31c0-1.82,1.38-2.74,2.69-2.74c1.31,0,2.69,0.91,2.69,2.74v5.91c0,1.82-1.38,2.74-2.69,2.74
		c-1.3,0-2.69-0.91-2.69-2.74V104.31z M189.79,110.22c0,0.77,0.5,1.13,1.09,1.13c0.58,0,1.08-0.36,1.08-1.13v-5.91
		c0-0.77-0.5-1.13-1.08-1.13c-0.58,0-1.09,0.36-1.09,1.13V110.22z"/>
</g>
<rect x="204.87" y="81.22" class="st6" width="20.37" height="37.62"/>
<g>
	<path class="st5" d="M207.24,88.01h2.43c2.15,0,2.95,1.42,2.95,2.93v0.42c0,1.24-0.41,1.69-1.14,2.15
		c0.78,0.37,1.14,1.07,1.14,2.28v0.65c0,2.02-0.96,3.16-3.11,3.16h-2.26V88.01z M208.91,92.77h0.75c1.11,0,1.4-0.57,1.4-1.63
		c0-1.03-0.37-1.56-1.47-1.56h-0.68V92.77z M208.91,97.94h0.72c1.34,0,1.43-0.81,1.43-1.95c0-1.16-0.21-1.76-1.42-1.76h-0.73V97.94z
		"/>
	<path class="st5" d="M214.18,88.01h2.67c1.97,0,2.93,1.16,2.93,3.4c0,1.34-0.37,2.31-1.43,2.9l1.79,5.29h-1.76l-1.55-4.95h-0.99
		v4.95h-1.66V88.01z M215.84,93.19h0.94c1.16,0,1.34-0.65,1.34-1.81c0-1.17-0.2-1.81-1.42-1.81h-0.86V93.19z"/>
	<path class="st5" d="M221.17,88.01h1.66v11.6h-1.66V88.01z"/>
</g>
<g>
	<path class="st5" d="M214.35,110.5c0,1.43-1.16,2.69-2.64,2.69c-1.27,0-2.74-0.62-2.74-2.74v-6.38c0-1.51,1.09-2.67,2.7-2.67
		c1.53,0,2.67,1.16,2.67,2.77v0.65h-1.66v-0.55c0-0.65-0.39-1.21-1.03-1.21c-0.83,0-1.03,0.57-1.03,1.35v5.93
		c0,0.67,0.26,1.19,1.01,1.19c0.46,0,1.04-0.26,1.04-1.17v-0.57h1.66V110.5z"/>
	<path class="st5" d="M215.6,104.23c0-1.89,1.43-2.83,2.79-2.83s2.78,0.95,2.78,2.83v6.12c0,1.89-1.43,2.83-2.78,2.83
		s-2.79-0.94-2.79-2.83V104.23z M217.26,110.35c0,0.8,0.52,1.17,1.12,1.17c0.6,0,1.12-0.37,1.12-1.17v-6.12
		c0-0.8-0.52-1.17-1.12-1.17c-0.6,0-1.12,0.37-1.12,1.17V110.35z"/>
</g>
<rect x="232.25" y="81.22" class="st7" width="20.37" height="37.62"/>
<g>
	<path class="st5" d="M236.44,88.01h2.43c2.15,0,2.95,1.42,2.95,2.93v0.42c0,1.24-0.41,1.69-1.14,2.15
		c0.78,0.37,1.14,1.07,1.14,2.28v0.65c0,2.02-0.96,3.16-3.11,3.16h-2.26V88.01z M238.1,92.77h0.75c1.11,0,1.4-0.57,1.4-1.63
		c0-1.03-0.38-1.56-1.47-1.56h-0.68V92.77z M238.1,97.94h0.72c1.33,0,1.43-0.81,1.43-1.95c0-1.16-0.21-1.76-1.42-1.76h-0.73V97.94z"
		/>
	<path class="st5" d="M245.21,88.01h1.38l2.59,11.6h-1.66l-0.49-2.49h-2.26l-0.49,2.49h-1.66L245.21,88.01z M245.15,85.19h1.53
		l1.6,2.3h-1.27l-1.09-1.55l-1.09,1.55h-1.27L245.15,85.19z M245.91,91.35h-0.03l-0.81,4.2h1.66L245.91,91.35z"/>
</g>
<g>
	<path class="st5" d="M239.95,103.06h-1.92v-1.56h5.51v1.56h-1.92v10.03h-1.66V103.06z"/>
	<path class="st5" d="M244.32,101.49h1.66v11.6h-1.66V101.49z"/>
</g>
<rect x="259.63" y="81.22" class="st8" width="20.37" height="37.62"/>
<g>
	<path class="st5" d="M264.96,96.87c0,1.53-1.06,2.83-2.83,2.83c-1.06,0-1.76-0.59-2.17-1.04l1.3-1.04
		c0.23,0.23,0.57,0.42,0.91,0.42c0.41,0,1.12-0.24,1.12-1.4v-8.63h1.66V96.87z"/>
	<path class="st5" d="M268.37,88.01h1.38l2.59,11.6h-1.66l-0.49-2.49h-2.26l-0.49,2.49h-1.66L268.37,88.01z M269.07,91.35h-0.03
		l-0.81,4.2h1.66L269.07,91.35z"/>
	<path class="st5" d="M273.15,88.01h2.67c1.97,0,2.93,1.16,2.93,3.4c0,1.34-0.37,2.31-1.43,2.9l1.79,5.29h-1.76l-1.55-4.95h-0.99
		v4.95h-1.66V88.01z M274.81,93.19h0.94c1.16,0,1.34-0.65,1.34-1.81c0-1.17-0.2-1.81-1.42-1.81h-0.86V93.19z"/>
</g>
<g>
	<path class="st5" d="M261.85,101.49h2.46c1.87,0,2.92,1.12,2.92,3v5.42c0,2.15-1.11,3.18-3.06,3.18h-2.31V101.49z M263.51,111.53
		h0.77c0.93,0,1.29-0.46,1.29-1.45v-5.59c0-0.91-0.31-1.43-1.29-1.43h-0.77V111.53z"/>
	<path class="st5" d="M268.84,101.49h1.66v11.6h-1.66V101.49z"/>
	<path class="st5" d="M272.04,101.49h1.6l2.51,6.99h0.03v-6.99h1.66v11.6h-1.56l-2.54-6.97h-0.03v6.97h-1.66V101.49z"/>
</g>
</svg>
