<?xml version="1.0" encoding="utf-8"?>
<!-- Generator: Adobe Illustrator 23.0.3, SVG Export Plug-In . SVG Version: 6.00 Build 0)  -->
<svg version="1.1" id="Logo_CMA" xmlns="http://www.w3.org/2000/svg" xmlns:xlink="http://www.w3.org/1999/xlink" x="0px" y="0px"
	 viewBox="0 0 300 200" style="enable-background:new 0 0 300 200;" xml:space="preserve">
<style type="text/css">
	.st0{fill-rule:evenodd;clip-rule:evenodd;fill:#DEA508;}
	.st1{fill-rule:evenodd;clip-rule:evenodd;fill:#005252;}
	.st2{fill-rule:evenodd;clip-rule:evenodd;fill:#7B1829;}
	.st3{fill-rule:evenodd;clip-rule:evenodd;fill:#00529C;}
</style>
<path id="a_4_" class="st0" d="M223.66,110.82h-28.14l-6.34,18.66c0,0,22.28,2.8,37.08-11.2L223.66,110.82"/>
<path id="a_3_" class="st1" d="M170.99,100.21c0,7.48,1.5,14.61,4.2,21.1l24.49-69.26C182.61,61.21,170.99,79.34,170.99,100.21"/>
<path id="a_2_" class="st2" d="M239.15,56.64c-5.92-3-13.94-5.28-20.41-5.99h-0.19l17.87,52.47
	C241.73,93.63,246.8,73.29,239.15,56.64"/>
<path id="m_1_" class="st0" d="M144.57,91.93c-0.53,1.39-9,23.85-11.36,30.08c4.75-1.28,9.7-3.1,14.69-5.46
	C146.72,107.83,144.73,93.14,144.57,91.93z M112.22,123.72c4.78,0.7,10.23,0.46,16.09-0.68c-1.37-3.77-10.78-29.62-11.33-31.11
	C116.24,96.86,115.96,98.96,112.22,123.72z"/>
<path id="a_1_" class="st1" d="M108.72,75.84c-2.54,1.73-6.76,5.46-9.98,12.61c-5.91,13.11-0.4,24.36,2.89,29.37L108.72,75.84"/>
<path id="m" class="st3" d="M119.22,71.57c2.78,6.89,11.98,29.67,12.46,30.85c0.47-1.21,9.52-24.63,12.03-31.14
	C133.64,69.73,124.74,69.98,119.22,71.57"/>
<path id="m_2_" class="st2" d="M163.69,86.23c-1.64-6.3-4.74-10.56-10.89-12.49l5.49,36.38C165.8,102.93,165.34,92.53,163.69,86.23z
	"/>
<path id="c" class="st2" d="M170.58,143.96c-64.42,0-101.43-16.97-101.43-43.27c0-26.21,34.89-42.77,92.85-44.67
	c1.62-0.05,3.9-0.1,6.83-0.14c1.25-0.02,2.24-1.04,2.22-2.29c0-0.24-0.04-0.47-0.12-0.69c-0.6-1.76-2.26-2.93-4.12-2.9
	c-2.33,0.04-4.16,0.08-5.49,0.12C92.55,52.27,51.35,73.31,51.35,100.54c0,34.36,55.88,49.46,113.89,49.46
	c25.49,0,52.54-2.64,81.16-7.93c1.49-0.28,2.47-1.71,2.2-3.19c-0.02-0.13-0.06-0.26-0.1-0.39c-0.58-1.71-2.34-2.74-4.12-2.4
	C216.7,141.34,192.1,143.96,170.58,143.96z"/>
<polyline id="a" class="st3" points="199.67,97.53 219.26,97.53 209.52,67.44 199.67,97.53 "/>
</svg>
