<?xml version="1.0" encoding="utf-8"?>
<!-- Generator: Adobe Illustrator 23.0.3, SVG Export Plug-In . SVG Version: 6.00 Build 0)  -->
<svg version="1.1" xmlns="http://www.w3.org/2000/svg" xmlns:xlink="http://www.w3.org/1999/xlink" x="0px" y="0px"
	 viewBox="0 0 300 200" style="enable-background:new 0 0 300 200;" xml:space="preserve">
<style type="text/css">
	.st0{display:none;}
	.st1{display:inline;fill-rule:evenodd;clip-rule:evenodd;fill:#DEA508;}
	.st2{display:inline;fill-rule:evenodd;clip-rule:evenodd;fill:#005252;}
	.st3{display:inline;fill-rule:evenodd;clip-rule:evenodd;fill:#7B1829;}
	.st4{display:inline;fill-rule:evenodd;clip-rule:evenodd;fill:#00529C;}
	.st5{display:inline;}
	.st6{fill:#E30613;}
	.st7{fill:#FFFFFF;}
	.st8{fill:#BFBFBF;}
	.st9{fill:none;stroke:#E5251D;stroke-width:0.75;}
	.st10{fill:#E30613;stroke:#E30613;}
	.st11{fill:#8DC63F;}
	.st12{fill:#0050A3;}
	.st13{fill:#FF4713;}
	.st14{fill-rule:evenodd;clip-rule:evenodd;fill:#76B72A;}
	.st15{fill-rule:evenodd;clip-rule:evenodd;fill:#1D1D1B;}
	.st16{fill-rule:evenodd;clip-rule:evenodd;fill:#FFFFFF;}
	.st17{fill:#005D9E;}
	.st18{clip-path:url(#SVGID_2_);fill:#FFDD12;}
	.st19{fill:#FFDD12;}
	.st20{clip-path:url(#SVGID_4_);fill:#FFDD12;}
	.st21{fill:#C2004D;}
	.st22{fill:#8EA3B9;}
	.st23{fill:#ED7203;}
	.st24{fill:#BBCE00;}
</style>
<g id="Logo_CMA" class="st0">
	<path id="a_4_" class="st1" d="M223.66,110.82h-28.14l-6.34,18.66c0,0,22.28,2.8,37.08-11.2L223.66,110.82"/>
	<path id="a_3_" class="st2" d="M170.99,100.21c0,7.48,1.5,14.61,4.2,21.1l24.49-69.26C182.61,61.21,170.99,79.34,170.99,100.21"/>
	<path id="a_2_" class="st3" d="M239.15,56.64c-5.92-3-13.94-5.28-20.41-5.99h-0.19l17.87,52.47
		C241.73,93.63,246.8,73.29,239.15,56.64"/>
	<path id="m_1_" class="st1" d="M144.57,91.93c-0.53,1.39-9,23.85-11.36,30.08c4.75-1.28,9.7-3.1,14.69-5.46
		C146.72,107.83,144.73,93.14,144.57,91.93z M112.22,123.72c4.78,0.7,10.23,0.46,16.09-0.68c-1.37-3.77-10.78-29.62-11.33-31.11
		C116.24,96.86,115.96,98.96,112.22,123.72z"/>
	<path id="a_1_" class="st2" d="M108.72,75.84c-2.54,1.73-6.76,5.46-9.98,12.61c-5.91,13.11-0.4,24.36,2.89,29.37L108.72,75.84"/>
	<path id="m" class="st4" d="M119.22,71.57c2.78,6.89,11.98,29.67,12.46,30.85c0.47-1.21,9.52-24.63,12.03-31.14
		C133.64,69.73,124.74,69.98,119.22,71.57"/>
	<path id="m_2_" class="st3" d="M163.69,86.23c-1.64-6.3-4.74-10.56-10.89-12.49l5.49,36.38C165.8,102.93,165.34,92.53,163.69,86.23
		z"/>
	<path id="c" class="st3" d="M170.58,143.96c-64.42,0-101.43-16.97-101.43-43.27c0-26.21,34.89-42.77,92.85-44.67
		c1.62-0.05,3.9-0.1,6.83-0.14c1.25-0.02,2.24-1.04,2.22-2.29c0-0.24-0.04-0.47-0.12-0.69c-0.6-1.76-2.26-2.93-4.12-2.9
		c-2.33,0.04-4.16,0.08-5.49,0.12C92.55,52.27,51.35,73.31,51.35,100.54c0,34.36,55.88,49.46,113.89,49.46
		c25.49,0,52.54-2.64,81.16-7.93c1.49-0.28,2.47-1.71,2.2-3.19c-0.02-0.13-0.06-0.26-0.1-0.39c-0.58-1.71-2.34-2.74-4.12-2.4
		C216.7,141.34,192.1,143.96,170.58,143.96z"/>
	<polyline id="a" class="st4" points="199.67,97.53 219.26,97.53 209.52,67.44 199.67,97.53 	"/>
</g>
<g id="Calque_7" class="st0">
	<g class="st5">
		<path class="st6" d="M192.8,105.51V48.51c0,0,1.19-18.56-19.32-18.56c-20.64,0,0.48,0,0.48,0h-0.48h-21.16h-1.1
			c0,0,9.77,9.27,9.94,23.52c0,0,1.29,16.32-18.04,24.62c0,0-21.76,7.6-29.04,24.74l-69.22,27.25l105.13,41.43l105.15-41.43
			L192.8,105.51z"/>
		<path class="st7" d="M192.76,109.03v3.46l44.86,17.66l-87.65,34.51l-87.65-34.51l49.58-19.52c0.16-1.29,0.41-2.53,0.74-3.75
			l-59.09,23.27l96.4,37.97l96.38-37.97L192.76,109.03z"/>
		<path class="st8" d="M149.97,164.66l87.65-34.51l-44.86-17.66v6.44h-80.77c-0.41-2.95-0.42-5.7-0.09-8.3l-49.58,19.52
			L149.97,164.66z"/>
		<path class="st6" d="M105.59,52.66c0,13.46,11.03,24.29,24.62,24.29c13.66,0,24.7-10.83,24.7-24.29
			c0-13.34-11.03-24.17-24.7-24.17C116.62,28.49,105.59,39.32,105.59,52.66z"/>
		<g>
			<path class="st9" d="M196.16,103.09V48.45c0.01-0.13,0.01-0.31,0.01-0.6c0-2.33-0.45-9.5-5.57-14.96
				c-3.91-4.17-9.52-6.32-16.65-6.41v-0.02h-31.1c0,0-6.25-1.46-12.65-1.46c-15.43,0-27.99,12.35-27.99,27.54
				c0,15.25,12.55,27.65,27.99,27.65c0.25,0,0.5-0.01,0.75-0.02c-6.77,4.08-14.94,10.58-19.38,19.9
				c-2.43,0.96-75.9,29.89-75.9,29.89L150,175l114.32-45.04C264.32,129.96,200.14,104.66,196.16,103.09z"/>
		</g>
		<path class="st10" d="M118.4,127.27c-0.06-1.06-0.12-2.35-0.12-3.29h-0.02c-0.27,0.88-0.58,1.84-0.96,2.9l-1.35,3.7h-0.75
			l-1.24-3.63c-0.36-1.09-0.66-2.06-0.87-2.97h-0.02c-0.02,0.95-0.08,2.22-0.15,3.37l-0.2,3.27h-0.94l0.53-7.63h1.26l1.3,3.69
			c0.32,0.94,0.57,1.78,0.77,2.57h0.02c0.2-0.77,0.48-1.61,0.82-2.57l1.36-3.69h1.26l0.48,7.63h-0.97L118.4,127.27z"/>
		<path class="st10" d="M130.81,128.22l-0.79,2.4H129l2.59-7.63h1.19l2.6,7.63h-1.05l-0.81-2.4H130.81z M133.31,127.46l-0.76-2.2
			c-0.16-0.5-0.27-0.95-0.38-1.39h-0.03c-0.1,0.44-0.23,0.92-0.37,1.38l-0.75,2.21H133.31z"/>
		<path class="st10" d="M146.85,123v7.63h-1V123H146.85z"/>
		<path class="st10" d="M159.37,123.83h-2.32V123h5.65v0.84h-2.33v6.79h-1V123.83z"/>
		<path class="st10" d="M172.91,123.11c0.5-0.1,1.22-0.17,1.89-0.17c1.05,0,1.74,0.2,2.22,0.63c0.37,0.33,0.6,0.85,0.6,1.45
			c0,1-0.65,1.66-1.44,1.94v0.03c0.58,0.2,0.93,0.75,1.12,1.54c0.25,1.06,0.43,1.8,0.58,2.09h-1.02c-0.12-0.21-0.29-0.87-0.5-1.82
			c-0.23-1.05-0.65-1.45-1.54-1.48h-0.93v3.3h-0.98V123.11z M173.89,126.57h1.01c1.05,0,1.72-0.58,1.72-1.45
			c0-0.98-0.71-1.41-1.75-1.41c-0.48,0-0.8,0.05-0.97,0.09V126.57z"/>
		<path class="st10" d="M192.31,127.05h-2.95v2.75h3.3v0.83h-4.3V123h4.13v0.83h-3.13v2.41h2.95V127.05z"/>
		<path class="st10" d="M113.58,140.67l-0.79,2.4h-1.02l2.59-7.63h1.19l2.6,7.63h-1.05l-0.81-2.4H113.58z M116.08,139.9l-0.76-2.2
			c-0.16-0.5-0.27-0.95-0.38-1.39h-0.03c-0.1,0.44-0.23,0.92-0.37,1.38l-0.75,2.21H116.08z"/>
		<path class="st10" d="M126.27,135.56c0.5-0.1,1.22-0.17,1.89-0.17c1.05,0,1.74,0.2,2.22,0.63c0.37,0.33,0.6,0.85,0.6,1.45
			c0,1-0.65,1.66-1.44,1.94v0.03c0.58,0.2,0.93,0.75,1.12,1.54c0.25,1.06,0.43,1.8,0.58,2.09h-1.02c-0.12-0.22-0.29-0.87-0.5-1.82
			c-0.23-1.05-0.65-1.45-1.54-1.48h-0.93v3.3h-0.98V135.56z M127.26,139.02h1.01c1.05,0,1.72-0.58,1.72-1.45
			c0-0.98-0.71-1.41-1.75-1.41c-0.48,0-0.8,0.05-0.97,0.09V139.02z"/>
		<path class="st10" d="M141.21,136.28h-2.32v-0.84h5.65v0.84h-2.33v6.79h-1V136.28z"/>
		<path class="st10" d="M153.71,135.44v7.63h-1v-7.63H153.71z"/>
		<path class="st10" d="M161.98,141.87c0.44,0.28,1.08,0.5,1.75,0.5c1.01,0,1.6-0.52,1.6-1.3c0-0.7-0.41-1.12-1.44-1.51
			c-1.24-0.45-2.01-1.11-2.01-2.17c0-1.19,0.98-2.07,2.47-2.07c0.77,0,1.35,0.18,1.67,0.37l-0.27,0.8
			c-0.24-0.15-0.75-0.36-1.44-0.36c-1.04,0-1.44,0.62-1.44,1.14c0,0.71,0.46,1.06,1.52,1.47c1.29,0.51,1.94,1.12,1.94,2.24
			c0,1.18-0.86,2.21-2.66,2.21c-0.74,0-1.54-0.23-1.95-0.5L161.98,141.87z"/>
		<path class="st10" d="M175.58,140.67l-0.79,2.4h-1.02l2.59-7.63h1.19l2.6,7.63h-1.05l-0.81-2.4H175.58z M178.08,139.9l-0.76-2.2
			c-0.16-0.5-0.27-0.95-0.38-1.39h-0.03c-0.1,0.44-0.23,0.92-0.37,1.38l-0.75,2.21H178.08z"/>
		<path class="st10" d="M186.93,143.07v-7.63h1.09l2.43,3.86c0.55,0.89,1.01,1.69,1.36,2.48l0.03-0.01
			c-0.09-1.02-0.11-1.95-0.11-3.12v-3.2h0.93v7.63h-1l-2.42-3.87c-0.53-0.85-1.04-1.72-1.42-2.55l-0.03,0.01
			c0.06,0.96,0.07,1.88,0.07,3.15v3.26H186.93z"/>
	</g>
</g>
<g id="Calque_2" class="st0">
	<g id="g36" class="st5">
		<g id="g42" transform="translate(301.3909,479.1039)">
			<path id="path44" class="st11" d="M-129.22-469.1c-7.42,0-14.2,3.01-19.08,8c1.84,1.65,3.94,3.51,5.85,5.12
				c3.44-3.36,8.12-5.39,13.24-5.39c10.46,0,18.96,8.51,18.96,18.96c0,5.14-1.93,9.78-5.57,13.42l-35.6,35.66l-29.45-29.49
				c-2.74,0.94-5.55,1.7-8.72,2.22l35.43,35.48c0.73,0.73,1.95,1.62,2.74,1.62c0.82,0,2.01-0.89,2.74-1.62l38.34-38.4
				c5.12-5.13,7.83-11.66,7.83-18.89C-102.52-457.12-114.5-469.1-129.22-469.1"/>
		</g>
		<g id="g46" transform="translate(355.5817,418.1956)">
			<path id="path48" class="st12" d="M-145.28-365.34c-3.61-0.61-7.03-1.34-10.33-2.19c-1.94,3.24-3.02,4.65-4.91,6.7
				c2.69,0.77,5.44,1.47,8.29,2.06c-0.39,0.61-0.77,1.21-1.15,1.8c-12.84,20.15-21.44,33.67-8.68,59.5
				c-2.62,2.94-6.6,5.8-11.67,8.39c-7.28-2.87-13.85-4.32-19.55-4.32c-11.27,0-17.45,5.65-19.91,11.85
				c-19.11-1.73-30.94-11.43-35.25-15.66c8.69-14.14,10.92-27.35,6.61-39.3c-4.63-12.83-16.06-19.87-22.88-22.9
				c-0.11-1.11-0.26-3.42-0.45-4.7c3.67,0.66,7.32,0.99,10.91,0.99h0c16.33,0,32.17-7,46.18-20.32c-1.73-1.34-3.66-3.02-5.84-5.11
				c-12.48,11.74-26.02,17.69-40.34,17.69h0c-4.79,0-9.72-0.68-14.67-2.03c-1.29-0.35-3.44-0.88-4.44,0.06
				c-0.97,0.91-0.64,3.12-0.37,4.43c0.77,3.85,1.39,9.89,1.45,11.71c0.08,2.66,0.3,2.85,2.76,3.71c2.88,1.01,15.76,6.17,20.42,19.1
				c3.69,10.25,1.18,22-7.43,34.98c-1.43,2.15-1.36,2.54,0.19,4.55c0.62,0.8,15.73,19.32,45.82,20.75c3.58,0.17,3.39-0.19,3.97-3.15
				c1.12-5.65,5.91-8.9,13.28-8.9c5.09,0,11.2,1.53,18.22,4.39c1.49,0.61,1.7,0.61,3.16-0.08c8.18-3.89,14.09-8.44,17.59-13.45
				c1.26-1.81,1.24-2.17,0.25-4.03c-12.35-23.33-5.79-33.59,7.21-53.99c1.35-2.12,2.76-4.34,4.22-6.67
				C-141.04-362.02-140.78-364.58-145.28-365.34"/>
		</g>
		<g id="g50" transform="translate(212.5397,433.129)">
			<path id="path52" class="st12" d="M-102.89-390.78c-0.56-1.81-0.86-3.7-0.86-5.64c0-10.46,8.51-18.96,18.96-18.96
				c4.32,0,8.33,1.43,11.55,3.92c6.6,5.34,9.43,8.58,14.55,12.94c8.09,6.88,16.54,12.45,24.93,16.54c1.47-1.55,3.44-3.7,5.47-5.98
				c-8.9-4.06-18.56-10.61-26.45-17.37c-4.33-3.72-9.72-8.65-11.37-10.18c0,0,0,0,0,0c-4.85-4.75-11.46-7.61-18.68-7.61
				c-14.72,0-26.7,11.98-26.7,26.71c0,2.17,0.26,4.3,0.76,6.35C-108.19-390.06-105.44-390.31-102.89-390.78"/>
		</g>
	</g>
	<g id="g110" class="st5">
		<path id="path156" class="st12" d="M239.1,189.32c-1.19,0.4-2.98,0.66-4.34,0.66c-3.38,0-5.88-1.48-5.88-6.39
			c0-4.82,2.2-6.25,5.65-6.25c3.98,0,5.72,1.22,5.39,7.38h-7.34c0.05,1.92,0.91,2.27,2.65,2.27c0.87,0,2.44-0.17,3.33-0.4
			L239.1,189.32z M232.61,182.06h4.17c-0.05-1.66-0.59-2.01-1.99-2.01C233.29,180.05,232.82,180.54,232.61,182.06"/>
		<path id="path152" class="st12" d="M227.57,189.37c-0.96,0.4-2.58,0.61-3.77,0.61c-3.59,0-5.98-1.48-5.98-6.39
			c0-4.87,2.41-6.25,5.98-6.25c1.24,0,2.84,0.19,3.77,0.52l-0.75,3.04c-0.68-0.26-1.73-0.49-2.72-0.49c-1.76,0-2.65,0.3-2.65,3.25
			c0,2.81,0.89,3.23,2.65,3.23c1.03,0,2.04-0.26,2.72-0.54L227.57,189.37z"/>
		<path id="path148" class="st12" d="M207.9,189.65h-3.61v-11.24c1.55-0.56,3.94-1.08,6.09-1.08c3.31,0,4.95,1.38,4.95,5.69v6.63
			h-3.61v-6.35c0-2.18-0.35-2.76-2.11-2.76c-0.59,0-1.13,0.07-1.71,0.21V189.65z"/>
		<path id="path144" class="st12" d="M201.31,189.04c-1.62,0.58-3.94,0.94-5.7,0.94c-3.96,0-5.13-0.84-5.13-3.98
			c0-3.37,1.83-3.91,4.69-3.91c0.89,0,1.8,0.12,2.72,0.3c0-1.66-0.38-2.13-2.72-2.13c-1.38,0-2.72,0.26-3.73,0.56l-0.56-2.86
			c1.38-0.35,3.38-0.63,5.16-0.63c3.59,0,5.27,1.1,5.27,4.66V189.04z M195.9,187.31c0.68,0,1.43-0.12,1.99-0.33v-2.27
			c-0.54-0.14-1.22-0.16-1.95-0.16c-1.29,0-1.76,0.14-1.76,1.33C194.19,187.1,194.49,187.31,195.9,187.31"/>
		<path id="path140" class="st12" d="M181.65,177.66h3.61v0.94c0.4-0.7,1.17-1.27,2.91-1.27c0.35,0,0.77,0.02,1.2,0.07v3.35
			c-0.47-0.14-1.1-0.19-1.69-0.19c-1.29,0-2.41,0.42-2.41,1.22v7.87h-3.61V177.66z"/>
		<path id="path128" class="st12" d="M180.1,173.33v3.3h-8.13v3.79h6.02v3.23h-6.02v5.99h-3.77v-16.32H180.1z"/>
		<path id="path124" class="st12" d="M159.47,181.27h6.16v3.44h-6.16V181.27z"/>
		<path id="path122" class="st12" d="M157.1,189.32c-1.19,0.4-2.98,0.66-4.34,0.66c-3.38,0-5.88-1.48-5.88-6.39
			c0-4.82,2.2-6.25,5.65-6.25c3.98,0,5.72,1.22,5.39,7.38h-7.34c0.05,1.92,0.91,2.27,2.65,2.27c0.87,0,2.44-0.17,3.33-0.4
			L157.1,189.32z M150.61,182.06h4.17c-0.05-1.66-0.58-2.01-1.99-2.01C151.29,180.05,150.82,180.54,150.61,182.06"/>
		<path id="path118" class="st12" d="M144.26,189.13c-1.31,0.49-3.56,0.84-5.44,0.84c-4.08,0-5.9-1.45-5.9-6.37
			c0-4.82,2.11-6.27,5.09-6.27c1.17,0,1.97,0.24,2.65,0.52v-5.1h3.61L144.26,189.13z M140.65,181.17c0-0.52-0.82-0.91-1.88-0.91
			c-1.69,0-2.23,0.75-2.23,3.3c0,2.9,0.56,3.4,2.27,3.4c0.61,0,1.38-0.09,1.83-0.28C140.65,186.67,140.65,181.17,140.65,181.17z"/>
		<path id="path106" class="st12" d="M125.04,181.27h6.16v3.44h-6.16V181.27z"/>
		<path id="path104" class="st12" d="M122.64,180.66c-0.94-0.26-2.32-0.51-3.54-0.51c-1.13,0-1.69,0.09-1.69,1.03
			c0,0.63,0.33,0.8,2.18,1.03c2.79,0.35,4.03,1.19,4.03,3.65c0,3.26-2.34,4.12-5.37,4.12c-1.29,0-3.16-0.26-4.27-0.66l0.7-2.72
			c0.89,0.26,2.23,0.49,3.4,0.49c1.41,0,2.06-0.12,2.06-1.06c0-0.65-0.4-0.91-2.39-1.1c-2.51-0.23-3.84-0.96-3.84-3.51
			c0-3.25,2.32-4.1,5.32-4.1c1.29,0,2.98,0.26,4.1,0.66L122.64,180.66z"/>
		<path id="path100" class="st12" d="M108.79,180.75v4.47c0,1.22,0.35,1.71,1.62,1.71c0.75,0,1.36-0.14,1.92-0.33l0.59,2.76
			c-0.89,0.37-2.32,0.61-3.61,0.61c-2.65,0-4.12-0.8-4.12-4.38v-4.85h-1.95v-3.09h1.95v-1.78l3.61-1.45v3.23h3.75v3.09H108.79z"/>
		<path id="path96" class="st12" d="M97.94,177.66h3.56v11.26c-1.52,0.54-3.94,1.08-6.07,1.08c-3.33,0-4.92-1.41-4.92-5.69v-6.65
			h3.56v6.37c0,2.15,0.38,2.76,2.13,2.76c0.59,0,1.1-0.09,1.73-0.23V177.66z"/>
		<path id="path92" class="st12" d="M87.62,189.04c-1.62,0.58-3.94,0.94-5.7,0.94c-3.96,0-5.13-0.84-5.13-3.98
			c0-3.37,1.83-3.91,4.69-3.91c0.89,0,1.8,0.12,2.72,0.3c0-1.66-0.38-2.13-2.72-2.13c-1.38,0-2.72,0.26-3.73,0.56l-0.56-2.86
			c1.38-0.35,3.37-0.63,5.16-0.63c3.59,0,5.27,1.1,5.27,4.66V189.04z M82.21,187.31c0.68,0,1.43-0.12,1.99-0.33v-2.27
			c-0.54-0.14-1.22-0.16-1.95-0.16c-1.29,0-1.76,0.14-1.76,1.33C80.49,187.1,80.8,187.31,82.21,187.31"/>
		<path id="path80" class="st12" d="M63.87,189.65H60.1v-16.32h3.77v5.95h6.14v-5.95h3.77v16.32h-3.77v-6.88h-6.14V189.65z"/>
	</g>
	<g id="g74" transform="translate(215.0305,258.6732)" class="st5">
		<path id="path56" class="st11" d="M-143.69-93.57h-3.58c-1.92-3.38-2.81-4.43-3.58-4.43h-1.28v4.43h-2.87v-12.41h6.92
			c2.55,0,3.4,1.58,3.4,3.63c0,1.78-0.75,3.33-3.1,3.45C-146.93-98.59-146-97.47-143.69-93.57 M-152.13-100.35h3.19
			c0.62,0,1.09-0.45,1.09-1.55c0-1.12-0.41-1.64-1.05-1.64h-3.22C-152.13-103.54-152.13-100.35-152.13-100.35z"/>
		<path id="path60" class="st11" d="M-135.02-93.82c-0.91,0.3-2.26,0.5-3.29,0.5c-2.56,0-4.47-1.12-4.47-4.86
			c0-3.67,1.67-4.75,4.29-4.75c3.03,0,4.34,0.92,4.09,5.61h-5.57c0.04,1.46,0.69,1.73,2.01,1.73c0.66,0,1.85-0.12,2.53-0.3
			L-135.02-93.82z M-140.11-103.68l2.19-2.3h2.79l-2.67,2.3H-140.11z M-139.95-99.34h3.17c-0.04-1.27-0.44-1.53-1.51-1.53
			C-139.44-100.87-139.79-100.49-139.95-99.34"/>
		<path id="path64" class="st11" d="M-129.22-93.37c-2.35,0-3.67-1-3.67-4.68c0-3.72,1.39-4.88,4.49-4.88
			c1.42,0,3.13,0.27,4.13,0.64v7.99c0,3.65-2.15,4.36-5.04,4.36c-1.18,0-2.49-0.23-3.33-0.53l0.48-2.14
			c0.94,0.25,1.85,0.41,2.79,0.41c1.48,0,2.35-0.37,2.35-1.69C-127.55-93.62-128.33-93.37-129.22-93.37 M-127.01-100.51
			c-0.43-0.18-0.98-0.25-1.39-0.25c-1.3,0-1.73,0.32-1.73,2.65c0,1.92,0.37,2.44,1.65,2.44c0.8,0,1.46-0.25,1.46-0.64V-100.51z"/>
		<path id="path68" class="st11" d="M-119.01-105.34c0,1.23-0.39,1.44-1.55,1.44c-1.18,0-1.55-0.21-1.55-1.44
			c0-1.12,0.37-1.3,1.55-1.3C-119.4-106.64-119.01-106.46-119.01-105.34 M-119.18-93.57h-2.74v-9.12h2.74
			C-119.18-102.68-119.18-93.57-119.18-93.57z"/>
		<path id="path72" class="st11" d="M-117.23-98.18c0-3.72,1.51-4.75,4.41-4.75c2.96,0,4.45,1.03,4.45,4.75
			c0,3.74-1.48,4.86-4.45,4.86C-115.75-93.32-117.23-94.44-117.23-98.18 M-114.47-98.13c0,2.3,0.37,2.67,1.65,2.67
			c1.3,0,1.67-0.37,1.67-2.67c0-2.39-0.37-2.67-1.67-2.67C-114.09-100.8-114.47-100.51-114.47-98.13"/>
		<path id="path76" class="st11" d="M-103.63-93.57h-2.74v-8.55c1.18-0.43,2.99-0.82,4.63-0.82c2.51,0,3.76,1.05,3.76,4.33v5.04
			h-2.74v-4.83c0-1.65-0.27-2.1-1.6-2.1c-0.44,0-0.85,0.05-1.3,0.16V-93.57z"/>
	</g>
</g>
<g id="Calque_6" class="st0">
	<g class="st5">
		<rect x="50" y="82.56" class="st13" width="200" height="34.88"/>
		<g>
			<g>
				<path class="st7" d="M230.26,100.49c2.27,0,3.64-1.72,3.64-3.97c0-2.25-1.35-3.9-3.52-3.9h-2.99v7.87H230.26z M219.3,87.86
					h11.52c6.32,0,10.7,3.39,10.7,8.56c0,5.32-4.38,8.96-10.61,8.96h-3.51v6.64h-8.09V87.86z"/>
				<rect x="209.22" y="106.98" class="st7" width="4.98" height="5.14"/>
				<path class="st7" d="M107.19,100.54c2.28,0,3.66-1.73,3.66-3.99c0-2.26-1.35-3.92-3.54-3.92h-3.27v7.91H107.19z M95.98,87.83
					h11.77c6.35,0,10.76,3.41,10.76,8.6c0,5.35-4.41,9-10.67,9h-3.8v6.62h-8.06V87.83z"/>
				<path class="st7" d="M146.18,99.98c0,8.9-6.33,12.51-12.86,12.51c-6.54,0-12.86-3.61-12.86-12.51c0-8.93,6.32-12.55,12.86-12.55
					C139.85,87.44,146.18,91.05,146.18,99.98z M128.53,99.98c0,3.54,2.28,5.97,4.78,5.97c2.5,0,4.78-2.42,4.78-5.97
					c0-3.54-2.29-6-4.78-6C130.82,93.98,128.53,96.44,128.53,99.98z"/>
				<path class="st7" d="M148.56,87.95h8.11v24.12h-8.11V87.95z"/>
				<path class="st7" d="M160.75,87.95h9.31l7.1,13.27h-0.2V87.95h7.81v24.12h-9.62l-7.2-13.02h-0.06v13.02h-7.15V87.95z"/>
				<path class="st7" d="M186.97,87.95h22.23v6.33h-7.23v17.79h-8.08V94.28h-6.92V87.95z"/>
			</g>
			<g>
				<polygon class="st7" points="66.93,95.89 76.24,90.48 73.93,89.15 64.59,94.54 64.59,105.32 66.92,106.66 				"/>
				<polygon class="st7" points="71.58,109.37 69.25,108.01 69.25,97.27 78.57,91.85 80.9,93.18 71.58,98.56 				"/>
				<polygon class="st7" points="73.93,110.73 73.93,99.95 83.23,94.56 83.23,102.55 77.43,105.95 77.43,103.33 80.9,101.31 
					80.9,98.53 76.24,101.24 76.24,109.39 				"/>
				<path class="st7" d="M73.94,112.04c-6.65,0-12.03-5.39-12.03-12.04c0-6.65,5.39-12.03,12.03-12.03s12.03,5.39,12.03,12.03
					C85.97,106.65,80.59,112.04,73.94,112.04z M88.01,100.01c0-7.77-6.3-14.07-14.07-14.07c-7.77,0-14.08,6.3-14.08,14.07
					s6.3,14.08,14.08,14.08C81.71,114.08,88.01,107.78,88.01,100.01z"/>
			</g>
		</g>
	</g>
</g>
<g id="Calque_3" class="st0">
	<g class="st5">
		<polygon class="st14" points="80.31,152.83 218.84,152.83 149.94,83.93 80.31,152.83 		"/>
		<polygon class="st15" points="77.66,149.37 88.46,138.84 84.86,135.15 78.08,141.77 66.14,129.52 62.13,133.44 77.66,149.37 		"/>
		<polygon class="st15" points="90.83,136.44 101.89,125.65 98.85,122.54 91.83,129.39 88.45,125.93 94.08,120.44 90.9,117.18 
			85.28,122.67 82.39,119.71 89.18,113.08 86.14,109.97 75.12,120.73 90.83,136.44 		"/>
		<path class="st15" d="M104.22,123.46l4.15-4.04l-8.48-8.69l13.71,3.62l4.11-4.01c0,0-9.93-3.39-10.4-3.31
			c-0.15,0.03,2.13-6.06-3-8.75c0,0-3.81-2.06-7.62,1.4l-8.13,8.01L104.22,123.46L104.22,123.46z"/>
		<path class="st15" d="M127.12,101.31c5.5-5.36,3.54-12.3-0.1-16.03c-4.46-4.57-12.2-4.02-15.92-0.39
			c-3.73,3.64-5.63,10.89-0.37,16.28C116.52,107.1,123.39,104.95,127.12,101.31L127.12,101.31z"/>
		<path class="st16" d="M123.74,98.18c2.47-2.41,2.33-4.78-1.66-8.87c-3.5-3.59-6.44-2.32-7.89-0.91c-2.11,2.05-2.28,5.04,0.62,8.01
			C118.26,99.93,121.28,100.59,123.74,98.18L123.74,98.18z"/>
		<polygon class="st15" points="139.46,89.08 143.54,85.1 137.4,78.8 133.73,63.52 129.05,68.08 131.49,76.75 123.27,73.73 
			118.86,78.03 132.87,82.53 139.46,89.08 		"/>
		<path class="st16" d="M99.71,110.58c0,0-3.61-3.7-3.74-3.83c-0.13-0.13,2.58-2.46,3.01-2.87c0.18-0.18,1.87-1.28,3.27,0.15
			c0,0,2.38,1.88,0.08,4.13C100.02,110.4,99.71,110.58,99.71,110.58L99.71,110.58z"/>
		<polygon class="st15" points="138.2,66.53 134.57,62.87 150.4,47.17 155.58,52.4 149.88,63.62 161.5,58.37 166.49,63.4 
			150.66,79.1 146.84,75.25 155.2,66.96 143.76,72.14 141.4,69.76 146.71,58.34 138.2,66.53 		"/>
		<polygon class="st15" points="165.68,94.24 154.71,83.18 170.54,67.48 181.54,78.57 178.34,81.75 171.45,74.79 168.87,77.35 
			174.31,82.83 170.98,86.14 165.57,80.69 162.11,84.12 168.95,91 165.68,94.24 		"/>
		<path class="st15" d="M169.24,97.83l4.08,4.11l8.65-8.58l-3.11,14.16l4.18,4.21c0,0,3.29-10.13,3.39-10.55c0,0,3.57,1.96,7.48-1.4
			c0,0,3.75-3.66,0.81-7.93l-9.61-9.69L169.24,97.83L169.24,97.83z"/>
		<polygon class="st15" points="201.87,99.07 205.95,103.18 193.97,115.07 200.68,121.82 196.82,125.64 186.04,114.77 201.87,99.07 
					"/>
		<polygon class="st15" points="199.67,128.51 215.5,112.81 219.49,116.83 203.66,132.53 199.67,128.51 		"/>
		<polygon class="st15" points="210.87,139.81 207.15,136.06 222.98,120.35 228.39,125.8 223.77,142.1 234.25,131.71 237.87,135.37 
			222.04,151.07 217.32,146.3 221.39,129.19 210.87,139.81 		"/>
		<path class="st16" d="M182.26,93.07c0,0,3.36-3.33,3.79-3.76c0,0,2.59,2.61,2.91,2.94c0.32,0.33,2.37,1.86-0.12,4.19
			c0,0-2.02,1.36-3.8-0.44L182.26,93.07L182.26,93.07z"/>
	</g>
</g>
<g id="Calque_5">
	<rect x="20" y="81.16" class="st17" width="150.49" height="37.62"/>
	<g>
		<defs>
			<rect id="SVGID_1_" x="20" y="81.16" width="260" height="37.68"/>
		</defs>
		<clipPath id="SVGID_2_">
			<use xlink:href="#SVGID_1_"  style="overflow:visible;"/>
		</clipPath>
		<path class="st18" d="M45.21,100.07c0,2.29,1.34,4.01,3.63,4.01c2.29,0,3.63-1.72,3.63-4.01c0-2.1-1.34-4.01-3.63-4.01
			C46.55,96.06,45.21,97.97,45.21,100.07 M56.67,107.9h-4.77v-1.91c-0.96,1.72-2.67,2.29-4.2,2.29c-4.2,0-7.07-3.82-7.07-8.21
			c0-4.39,2.86-8.21,7.07-8.21c1.53,0,3.25,0.57,4.2,1.91v-1.53h4.77V107.9z"/>
	</g>
	<polygon class="st19" points="76.53,107.9 71.37,107.9 71.37,96.25 69.85,96.25 69.85,92.24 71.37,92.24 71.37,88.23 76.53,88.23 
		76.53,92.24 79.01,92.24 79.01,96.25 76.53,96.25 	"/>
	<g>
		<defs>
			<rect id="SVGID_3_" x="20" y="81.16" width="260" height="37.68"/>
		</defs>
		<clipPath id="SVGID_4_">
			<use xlink:href="#SVGID_3_"  style="overflow:visible;"/>
		</clipPath>
		<path class="st20" d="M83.6,100.07c0,2.29,1.34,4.01,3.63,4.01c2.48,0,3.82-1.72,3.82-4.01c0-2.29-1.34-4.01-3.82-4.01
			C84.93,96.06,83.6,97.78,83.6,100.07 M95.63,100.07c0,5.35-3.82,8.21-8.4,8.21c-4.39,0-8.21-2.86-8.21-8.21
			c0-5.35,3.82-8.21,8.21-8.21C91.81,91.86,95.63,94.72,95.63,100.07"/>
		<path class="st20" d="M101.55,94.53L101.55,94.53c1.15-1.91,2.67-2.48,3.82-2.48h0.19v4.97c-3.25,0-4.01,1.72-4.01,4.58v6.3h-4.97
			V92.24h4.97V94.53z"/>
		<path class="st20" d="M128.09,94.34L128.09,94.34c1.15-1.72,2.48-2.48,4.2-2.48c1.72,0,2.86,0.57,3.82,2.48
			c0.76-1.72,2.1-2.67,3.82-2.67c3.25,0,4.39,2.67,4.39,5.92v10.31h-4.77v-7.64c0-1.72,0.19-4.01-1.53-4.01
			c-1.91,0-1.72,2.1-1.72,4.01v7.64h-4.77v-7.64c0-1.72,0.19-4.01-1.72-4.01c-2.1,0-1.72,2.29-1.72,4.01v7.64h-4.58V92.43h4.58
			V94.34z"/>
		<path class="st20" d="M40.44,97.4c-0.76-0.57-1.91-1.34-3.06-1.34c-2.1,0-3.82,1.72-3.82,4.01c0,2.48,1.53,4.2,4.01,4.2
			c0.96,0,2.1-0.76,2.86-1.53v4.58c-1.15,0.57-2.48,0.95-3.82,0.95c-4.39,0-8.02-3.25-8.02-8.02c0-4.97,3.63-8.4,8.4-8.4
			c1.15,0,2.29,0.38,3.44,0.95V97.4z"/>
		<path class="st20" d="M110.14,100.07c0,2.29,1.53,4.01,3.82,4.01c2.29,0,3.63-1.72,3.63-4.01c0-2.29-1.34-4.01-3.63-4.01
			C111.67,96.06,110.14,97.78,110.14,100.07 M121.79,107.9h-4.78v-1.91c-0.95,1.72-2.67,2.29-4.2,2.29c-4.2,0-7.07-3.82-7.07-8.21
			c0-4.39,2.86-8.21,7.07-8.21c1.53,0,3.25,0.57,4.2,1.91v-1.53h4.78V107.9z"/>
		<path class="st20" d="M149.49,100.07c0,2.29,1.34,4.01,3.63,4.01c2.29,0,3.63-1.72,3.63-4.01c0-2.29-1.34-4.01-3.63-4.01
			C150.82,96.06,149.49,97.78,149.49,100.07 M160.94,107.9h-4.77v-1.91c-0.95,1.72-2.67,2.29-4.2,2.29c-4.01,0-6.87-3.82-6.87-8.21
			c0-4.39,2.67-8.21,6.87-8.21c1.53,0,3.25,0.57,4.2,1.91v-1.53h4.77V107.9z"/>
		<path class="st20" d="M67.36,96.25c-0.76-0.38-1.91-0.76-2.67-0.76c-0.57,0-1.53,0.38-1.53,1.15c0,0.95,1.53,1.15,2.1,1.34
			c2.29,0.57,4.2,1.72,4.2,4.58c0,4.2-3.44,5.92-6.68,5.92c-1.91,0-3.82-0.76-5.54-1.91l1.72-3.82c0.95,0.77,2.67,1.53,4.01,1.53
			c0.57,0,1.53-0.19,1.53-1.15c0-1.15-1.53-1.34-3.25-1.72c-1.53-0.38-3.06-1.34-3.06-4.2c0-3.82,3.06-5.54,6.11-5.54
			c1.72,0,3.25,0.38,4.58,1.15L67.36,96.25z"/>
	</g>
	<rect x="177.5" y="81.22" class="st21" width="20.37" height="37.62"/>
	<g>
		<path class="st7" d="M182.18,88.19h2.37c1.81,0,2.81,1.08,2.81,2.89v5.24c0,2.08-1.07,3.07-2.96,3.07h-2.23V88.19z M183.78,97.88
			h0.74c0.9,0,1.24-0.44,1.24-1.4v-5.39c0-0.88-0.3-1.38-1.24-1.38h-0.74V97.88z"/>
		<path class="st7" d="M188.88,88.19h4.78v1.51h-3.18v3.29h2.77v1.51h-2.77v3.29h3.18v1.6h-4.78V88.19z M191.58,85.47h1.7
			l-2.07,2.22h-1.04L191.58,85.47z"/>
	</g>
	<g>
		<path class="st7" d="M186.98,110.36c0,1.38-1.12,2.59-2.55,2.59c-1.23,0-2.64-0.6-2.64-2.64v-6.16c0-1.46,1.05-2.58,2.61-2.58
			c1.48,0,2.58,1.12,2.58,2.67v0.63h-1.6v-0.53c0-0.63-0.38-1.16-0.99-1.16c-0.8,0-0.99,0.55-0.99,1.31v5.72
			c0,0.64,0.25,1.15,0.97,1.15c0.44,0,1.01-0.25,1.01-1.13v-0.55h1.6V110.36z"/>
		<path class="st7" d="M188.19,104.31c0-1.82,1.38-2.74,2.69-2.74c1.31,0,2.69,0.91,2.69,2.74v5.91c0,1.82-1.38,2.74-2.69,2.74
			c-1.3,0-2.69-0.91-2.69-2.74V104.31z M189.79,110.22c0,0.77,0.5,1.13,1.09,1.13c0.58,0,1.08-0.36,1.08-1.13v-5.91
			c0-0.77-0.5-1.13-1.08-1.13c-0.58,0-1.09,0.36-1.09,1.13V110.22z"/>
	</g>
	<rect x="204.87" y="81.22" class="st22" width="20.37" height="37.62"/>
	<g>
		<path class="st7" d="M207.24,88.01h2.43c2.15,0,2.95,1.42,2.95,2.93v0.42c0,1.24-0.41,1.69-1.14,2.15
			c0.78,0.37,1.14,1.07,1.14,2.28v0.65c0,2.02-0.96,3.16-3.11,3.16h-2.26V88.01z M208.91,92.77h0.75c1.11,0,1.4-0.57,1.4-1.63
			c0-1.03-0.37-1.56-1.47-1.56h-0.68V92.77z M208.91,97.94h0.72c1.34,0,1.43-0.81,1.43-1.95c0-1.16-0.21-1.76-1.42-1.76h-0.73V97.94
			z"/>
		<path class="st7" d="M214.18,88.01h2.67c1.97,0,2.93,1.16,2.93,3.4c0,1.34-0.37,2.31-1.43,2.9l1.79,5.29h-1.76l-1.55-4.95h-0.99
			v4.95h-1.66V88.01z M215.84,93.19h0.94c1.16,0,1.34-0.65,1.34-1.81c0-1.17-0.2-1.81-1.42-1.81h-0.86V93.19z"/>
		<path class="st7" d="M221.17,88.01h1.66v11.6h-1.66V88.01z"/>
	</g>
	<g>
		<path class="st7" d="M214.35,110.5c0,1.43-1.16,2.69-2.64,2.69c-1.27,0-2.74-0.62-2.74-2.74v-6.38c0-1.51,1.09-2.67,2.7-2.67
			c1.53,0,2.67,1.16,2.67,2.77v0.65h-1.66v-0.55c0-0.65-0.39-1.21-1.03-1.21c-0.83,0-1.03,0.57-1.03,1.35v5.93
			c0,0.67,0.26,1.19,1.01,1.19c0.46,0,1.04-0.26,1.04-1.17v-0.57h1.66V110.5z"/>
		<path class="st7" d="M215.6,104.23c0-1.89,1.43-2.83,2.79-2.83s2.78,0.95,2.78,2.83v6.12c0,1.89-1.43,2.83-2.78,2.83
			s-2.79-0.94-2.79-2.83V104.23z M217.26,110.35c0,0.8,0.52,1.17,1.12,1.17c0.6,0,1.12-0.37,1.12-1.17v-6.12
			c0-0.8-0.52-1.17-1.12-1.17c-0.6,0-1.12,0.37-1.12,1.17V110.35z"/>
	</g>
	<rect x="232.25" y="81.22" class="st23" width="20.37" height="37.62"/>
	<g>
		<path class="st7" d="M236.44,88.01h2.43c2.15,0,2.95,1.42,2.95,2.93v0.42c0,1.24-0.41,1.69-1.14,2.15
			c0.78,0.37,1.14,1.07,1.14,2.28v0.65c0,2.02-0.96,3.16-3.11,3.16h-2.26V88.01z M238.1,92.77h0.75c1.11,0,1.4-0.57,1.4-1.63
			c0-1.03-0.38-1.56-1.47-1.56h-0.68V92.77z M238.1,97.94h0.72c1.33,0,1.43-0.81,1.43-1.95c0-1.16-0.21-1.76-1.42-1.76h-0.73V97.94z
			"/>
		<path class="st7" d="M245.21,88.01h1.38l2.59,11.6h-1.66l-0.49-2.49h-2.26l-0.49,2.49h-1.66L245.21,88.01z M245.15,85.19h1.53
			l1.6,2.3h-1.27l-1.09-1.55l-1.09,1.55h-1.27L245.15,85.19z M245.91,91.35h-0.03l-0.81,4.2h1.66L245.91,91.35z"/>
	</g>
	<g>
		<path class="st7" d="M239.95,103.06h-1.92v-1.56h5.51v1.56h-1.92v10.03h-1.66V103.06z"/>
		<path class="st7" d="M244.32,101.49h1.66v11.6h-1.66V101.49z"/>
	</g>
	<rect x="259.63" y="81.22" class="st24" width="20.37" height="37.62"/>
	<g>
		<path class="st7" d="M264.96,96.87c0,1.53-1.06,2.83-2.83,2.83c-1.06,0-1.76-0.59-2.17-1.04l1.3-1.04
			c0.23,0.23,0.57,0.42,0.91,0.42c0.41,0,1.12-0.24,1.12-1.4v-8.63h1.66V96.87z"/>
		<path class="st7" d="M268.37,88.01h1.38l2.59,11.6h-1.66l-0.49-2.49h-2.26l-0.49,2.49h-1.66L268.37,88.01z M269.07,91.35h-0.03
			l-0.81,4.2h1.66L269.07,91.35z"/>
		<path class="st7" d="M273.15,88.01h2.67c1.97,0,2.93,1.16,2.93,3.4c0,1.34-0.37,2.31-1.43,2.9l1.79,5.29h-1.76l-1.55-4.95h-0.99
			v4.95h-1.66V88.01z M274.81,93.19h0.94c1.16,0,1.34-0.65,1.34-1.81c0-1.17-0.2-1.81-1.42-1.81h-0.86V93.19z"/>
	</g>
	<g>
		<path class="st7" d="M261.85,101.49h2.46c1.87,0,2.92,1.12,2.92,3v5.42c0,2.15-1.11,3.18-3.06,3.18h-2.31V101.49z M263.51,111.53
			h0.77c0.93,0,1.29-0.46,1.29-1.45v-5.59c0-0.91-0.31-1.43-1.29-1.43h-0.77V111.53z"/>
		<path class="st7" d="M268.84,101.49h1.66v11.6h-1.66V101.49z"/>
		<path class="st7" d="M272.04,101.49h1.6l2.51,6.99h0.03v-6.99h1.66v11.6h-1.56l-2.54-6.97h-0.03v6.97h-1.66V101.49z"/>
	</g>
</g>
</svg>
