<?xml version="1.0" encoding="utf-8"?>
<!-- Generator: Adobe Illustrator 23.0.3, SVG Export Plug-In . SVG Version: 6.00 Build 0)  -->
<svg version="1.1" id="Calque_3" xmlns="http://www.w3.org/2000/svg" xmlns:xlink="http://www.w3.org/1999/xlink" x="0px" y="0px"
	 viewBox="0 0 300 200" style="enable-background:new 0 0 300 200;" xml:space="preserve">
<style type="text/css">
	.st0{fill-rule:evenodd;clip-rule:evenodd;fill:#76B72A;}
	.st1{fill-rule:evenodd;clip-rule:evenodd;fill:#1D1D1B;}
	.st2{fill-rule:evenodd;clip-rule:evenodd;fill:#FFFFFF;}
</style>
<g>
	<polygon class="st0" points="80.31,152.83 218.84,152.83 149.94,83.93 80.31,152.83 	"/>
	<polygon class="st1" points="77.66,149.37 88.46,138.84 84.86,135.15 78.08,141.77 66.14,129.52 62.13,133.44 77.66,149.37 	"/>
	<polygon class="st1" points="90.83,136.44 101.89,125.65 98.85,122.54 91.83,129.39 88.45,125.93 94.08,120.44 90.9,117.18 
		85.28,122.67 82.39,119.71 89.18,113.08 86.14,109.97 75.12,120.73 90.83,136.44 	"/>
	<path class="st1" d="M104.22,123.46l4.15-4.04l-8.48-8.69l13.71,3.62l4.11-4.01c0,0-9.93-3.39-10.4-3.31
		c-0.15,0.03,2.13-6.06-3-8.75c0,0-3.81-2.06-7.62,1.4l-8.13,8.01L104.22,123.46L104.22,123.46z"/>
	<path class="st1" d="M127.12,101.31c5.5-5.36,3.54-12.3-0.1-16.03c-4.46-4.57-12.2-4.02-15.92-0.39
		c-3.73,3.64-5.63,10.89-0.37,16.28C116.52,107.1,123.39,104.95,127.12,101.31L127.12,101.31z"/>
	<path class="st2" d="M123.74,98.18c2.47-2.41,2.33-4.78-1.66-8.87c-3.5-3.59-6.44-2.32-7.89-0.91c-2.11,2.05-2.28,5.04,0.62,8.01
		C118.26,99.93,121.28,100.59,123.74,98.18L123.74,98.18z"/>
	<polygon class="st1" points="139.46,89.08 143.54,85.1 137.4,78.8 133.73,63.52 129.05,68.08 131.49,76.75 123.27,73.73 
		118.86,78.03 132.87,82.53 139.46,89.08 	"/>
	<path class="st2" d="M99.71,110.58c0,0-3.61-3.7-3.74-3.83c-0.13-0.13,2.58-2.46,3.01-2.87c0.18-0.18,1.87-1.28,3.27,0.15
		c0,0,2.38,1.88,0.08,4.13C100.02,110.4,99.71,110.58,99.71,110.58L99.71,110.58z"/>
	<polygon class="st1" points="138.2,66.53 134.57,62.87 150.4,47.17 155.58,52.4 149.88,63.62 161.5,58.37 166.49,63.4 150.66,79.1 
		146.84,75.25 155.2,66.96 143.76,72.14 141.4,69.76 146.71,58.34 138.2,66.53 	"/>
	<polygon class="st1" points="165.68,94.24 154.71,83.18 170.54,67.48 181.54,78.57 178.34,81.75 171.45,74.79 168.87,77.35 
		174.31,82.83 170.98,86.14 165.57,80.69 162.11,84.12 168.95,91 165.68,94.24 	"/>
	<path class="st1" d="M169.24,97.83l4.08,4.11l8.65-8.58l-3.11,14.16l4.18,4.21c0,0,3.29-10.13,3.39-10.55c0,0,3.57,1.96,7.48-1.4
		c0,0,3.75-3.66,0.81-7.93l-9.61-9.69L169.24,97.83L169.24,97.83z"/>
	<polygon class="st1" points="201.87,99.07 205.95,103.18 193.97,115.07 200.68,121.82 196.82,125.64 186.04,114.77 201.87,99.07 	
		"/>
	<polygon class="st1" points="199.67,128.51 215.5,112.81 219.49,116.83 203.66,132.53 199.67,128.51 	"/>
	<polygon class="st1" points="210.87,139.81 207.15,136.06 222.98,120.35 228.39,125.8 223.77,142.1 234.25,131.71 237.87,135.37 
		222.04,151.07 217.32,146.3 221.39,129.19 210.87,139.81 	"/>
	<path class="st2" d="M182.26,93.07c0,0,3.36-3.33,3.79-3.76c0,0,2.59,2.61,2.91,2.94c0.32,0.33,2.37,1.86-0.12,4.19
		c0,0-2.02,1.36-3.8-0.44L182.26,93.07L182.26,93.07z"/>
</g>
</svg>
