<?xml version="1.0" encoding="utf-8"?>
<!-- Generator: Adobe Illustrator 23.0.3, SVG Export Plug-In . SVG Version: 6.00 Build 0)  -->
<svg version="1.1" id="Calque_4" xmlns="http://www.w3.org/2000/svg" xmlns:xlink="http://www.w3.org/1999/xlink" x="0px" y="0px"
	 viewBox="0 0 300 200" style="enable-background:new 0 0 300 200;" xml:space="preserve">
<style type="text/css">
	.st0{fill:#EB5D56;}
	.st1{fill:none;stroke:#000000;stroke-width:0.25;stroke-miterlimit:10;}
</style>
<g>
	<path d="M25,89.42l7.4-0.61l4.88,16.36l4.39-17.22l6.03-0.5l5.35,16.41l3.92-17.1l7.25-0.6l-7.61,29.82l-6.1,0.51l-5.56-16.22
		l-4.58,17.07l-6.1,0.51L25,89.42z"/>
	<path d="M67,85.93l20.32-1.69l0.2,6.82l-13.39,1.11l0.13,4.38l12.12-1.01l0.18,6.32l-12.12,1.01l0.13,4.58l13.57-1.13l0.2,6.82
		l-20.5,1.7L67,85.93z"/>
	<path d="M91.07,83.93l12.95-1.08c3.18-0.26,5.44,0.46,6.97,2.03c1.04,1.07,1.7,2.55,1.76,4.53l0,0.08c0.1,3.35-1.51,5.47-3.71,6.77
		c3.1,0.9,5.11,2.72,5.22,6.65l0,0.08c0.14,4.96-3.31,8.27-9.33,8.77l-13.03,1.08L91.07,83.93z M102.62,94.52
		c2.13-0.18,3.3-1.1,3.25-2.8l0-0.08c-0.04-1.57-1.15-2.39-3.25-2.21l-4.55,0.38l0.15,5.08L102.62,94.52z M103.95,105.39
		c2.13-0.18,3.33-1.23,3.28-2.92l0-0.08c-0.05-1.57-1.16-2.51-3.5-2.32l-5.34,0.44l0.15,5.33L103.95,105.39z"/>
	<path d="M116.87,81.79l20.21-1.68l0.2,7.02l-13.21,1.1l0.14,4.92l11.94-0.99l0.19,6.65l-11.94,0.99l0.3,10.33l-7,0.58L116.87,81.79
		z"/>
	<path d="M139.8,94.46l0-0.08c-0.24-8.3,5.42-15.52,13.21-16.17c7.79-0.65,13.76,5.52,14,13.82l0,0.08
		c0.24,8.3-5.42,15.52-13.21,16.17C146,108.93,140.04,102.76,139.8,94.46z M159.86,92.79l0-0.08c-0.12-4.17-2.86-7.59-6.72-7.27
		c-3.83,0.32-6.29,4.08-6.17,8.25l0,0.08c0.12,4.17,2.86,7.59,6.68,7.27C157.52,100.72,159.98,96.96,159.86,92.79z"/>
	<path d="M170.23,77.35l11.94-0.99c3.86-0.32,6.57,0.61,8.32,2.46c1.53,1.53,2.35,3.7,2.43,6.55l0,0.08
		c0.13,4.42-1.85,7.52-4.94,9.31l6.31,9.58l-8.08,0.67l-5.34-8.33l-3.07,0.25l0.25,8.76l-7,0.58L170.23,77.35z M182.25,90.26
		c2.38-0.2,3.71-1.63,3.65-3.74l0-0.08c-0.06-2.27-1.54-3.31-3.89-3.11l-4.58,0.38l0.2,6.94L182.25,90.26z"/>
	<path d="M195.73,89.81l0-0.08c-0.24-8.43,5.23-15.51,12.88-16.14c5.16-0.43,8.55,1.77,10.89,5.14l-5.13,5.11
		c-1.5-1.94-3.2-3.13-5.62-2.93c-3.54,0.29-5.93,3.93-5.81,8.14l0,0.08c0.12,4.34,2.71,7.52,6.25,7.22c2.63-0.22,4.15-1.75,5.6-3.99
		l5.39,3.86c-2.27,3.96-5.41,6.99-11,7.46C201.97,104.27,195.98,98.44,195.73,89.81z"/>
	<path d="M222.52,73l20.32-1.69l0.2,6.82l-13.39,1.11l0.13,4.38l12.12-1.01l0.18,6.32l-12.12,1.01l0.13,4.58l13.57-1.13l0.19,6.82
		l-20.5,1.7L222.52,73z"/>
</g>
<g>
	<path d="M92.81,118.9l5.28-0.44c1.42-0.12,2.55,0.22,3.27,0.9c0.53,0.52,0.83,1.19,0.85,2.04l0,0.04c0.04,1.71-0.93,2.67-1.89,3.21
		c1.48,0.35,2.69,1.15,2.74,2.95l0,0.04c0.05,2.25-1.7,3.74-4.42,3.96l-5.51,0.46L92.81,118.9z M98.01,124.34
		c1.68-0.14,2.83-1.04,2.8-2.58l0-0.04c-0.03-1.3-1.03-2.06-2.8-1.91l-3.78,0.31l0.11,4.53L98.01,124.34z M98.65,130.25
		c1.88-0.16,3.03-1.14,2.99-2.6l0-0.04c-0.03-1.43-1.19-2.16-3.35-1.98l-3.92,0.33l0.11,4.64L98.65,130.25z"/>
	<path d="M105.61,117.83l8.97-0.75l0.03,1.35l-7.57,0.63l0.11,4.49l6.77-0.56l0.03,1.35l-6.77,0.56l0.11,4.6l7.66-0.64l0.03,1.35
		l-9.06,0.75L105.61,117.83z"/>
	<path d="M126.13,117.5l-4.17,0.35l-0.03-1.37l9.75-0.81l0.03,1.37l-4.17,0.35l0.29,11.78l-1.42,0.12L126.13,117.5z"/>
	<path d="M134.3,115.45l1.4-0.12l0.14,5.84l7.16-0.6l-0.14-5.84l1.4-0.12l0.32,13.15l-1.4,0.12l-0.14-5.92l-7.16,0.6l0.14,5.92
		l-1.4,0.12L134.3,115.45z"/>
	<path d="M147.78,114.33l8.97-0.75l0.03,1.35l-7.57,0.63l0.11,4.49l6.77-0.56l0.03,1.35l-6.77,0.56l0.11,4.6l7.66-0.64l0.03,1.35
		l-9.06,0.75L147.78,114.33z"/>
	<path d="M164.58,119.55l0-0.04c-0.09-3.72,2.46-7.02,6.11-7.32c2.25-0.19,3.62,0.55,4.89,1.68l-0.93,1.17
		c-1.07-0.96-2.26-1.62-3.94-1.48c-2.75,0.23-4.75,2.77-4.67,5.79l0,0.04c0.07,3.04,2.21,5.26,4.94,5.03
		c1.7-0.14,2.8-0.93,3.96-2.23l0.94,0.88c-1.26,1.5-2.66,2.54-4.91,2.72C167.39,126.1,164.68,123.33,164.58,119.55z"/>
	<path d="M178.06,111.81l1.4-0.12l0.14,5.84l7.16-0.6l-0.14-5.84l1.4-0.12l0.32,13.15l-1.4,0.12l-0.14-5.92l-7.16,0.6l0.14,5.92
		l-1.4,0.12L178.06,111.81z"/>
	<path d="M196.12,110.21l1.31-0.11l5.98,12.77l-1.51,0.13l-1.54-3.35l-6.75,0.56l-1.39,3.6l-1.44,0.12L196.12,110.21z
		 M199.79,118.36l-2.98-6.47l-2.67,6.94L199.79,118.36z"/>
	<path d="M205.54,109.52l1.31-0.11l8.07,9.89l-0.26-10.54l1.36-0.11l0.32,13.15l-1.12,0.09l-8.28-10.12l0.26,10.78l-1.36,0.11
		L205.54,109.52z"/>
	<path d="M219.16,115.01l0-0.04c-0.09-3.61,2.33-7.01,6.06-7.32c2.09-0.17,3.4,0.36,4.67,1.36l-0.88,1.2
		c-0.98-0.8-2.06-1.33-3.81-1.19c-2.75,0.23-4.66,2.85-4.59,5.78l0,0.04c0.08,3.14,2.03,5.31,5.04,5.06
		c1.42-0.12,2.72-0.81,3.55-1.61l-0.08-3.27l-3.78,0.31l-0.03-1.33l5.12-0.43l0.13,5.24c-1.13,1.19-2.84,2.25-4.93,2.42
		C221.73,121.58,219.25,118.77,219.16,115.01z"/>
	<path d="M233.45,107.2l8.97-0.75l0.03,1.35l-7.57,0.63l0.11,4.49l6.77-0.56l0.03,1.35l-6.77,0.56l0.11,4.6l7.66-0.64l0.03,1.35
		l-9.06,0.75L233.45,107.2z"/>
</g>
<g id="XMLID_1_">
	<g>
		<polygon class="st0" points="272.36,97.19 263.75,101.88 254.11,95.85 254.11,85.89 		"/>
		<path d="M252.21,119.8v-10.65l-3.49-1.67v10.52L252.21,119.8z M266.93,75.23l-8.76-5.18l-8.6,5.2l8.42,5.08L266.93,75.23z
			 M272.36,97.19l-18.25-11.3v9.96l9.64,6.03L272.36,97.19z M263.46,89.57l5.25-3.18V76.28l-13.92,7.92L263.46,89.57z M273.2,98.78
			l-19.19,10.44v10.62l19.19-10.87V98.78z M258.16,67.95l12.35,7.3v12.15l-5.34,3.22l9.83,6.08v13.3l-21.78,12.33l-6.3-3.26v-14.47
			l6.26,3l8.75-4.75l-9.62-6.02V83.56l3.87-2.21l-10.1-6.1L258.16,67.95z"/>
	</g>
	<g>
		<polygon class="st1" points="263.75,101.88 272.36,97.19 254.11,85.89 254.11,95.85 		"/>
		<polygon class="st1" points="263.46,89.57 268.71,86.39 268.71,76.28 254.79,84.2 		"/>
		<polygon class="st1" points="252.21,109.15 248.72,107.47 248.72,117.99 252.21,119.8 		"/>
		<polygon class="st1" points="254.01,109.22 254.01,119.83 273.2,108.97 273.2,98.78 		"/>
	</g>
</g>
</svg>
