<?xml version="1.0" encoding="utf-8"?>
<!-- Generator: Adobe Illustrator 23.0.3, SVG Export Plug-In . SVG Version: 6.00 Build 0)  -->
<svg version="1.1" id="Calque_1" xmlns="http://www.w3.org/2000/svg" xmlns:xlink="http://www.w3.org/1999/xlink" x="0px" y="0px"
	 viewBox="0 0 250 120" style="enable-background:new 0 0 250 120;" xml:space="preserve">
<style type="text/css">
	.st0{fill:#4C4848;}
	.st1{fill:#00AB9F;}
</style>
<g>
	<path class="st0" d="M8.96,97.58h1.39c1.61,0,2.53-1.15,2.53-2.61c0-1.47-0.86-2.53-2.59-2.53H5.28v-3.19h5.06
		c3.68,0,6.29,1.9,6.29,5.26c0,1.9-0.92,3.54-2.47,4.37v0.06c2.24,0.66,3.3,2.73,3.3,4.8c0,4.08-3.28,5.92-7.04,5.92H7.49v-3.19
		h3.23c1.9,0,2.96-1.24,2.96-2.96c0-1.7-1.09-2.93-2.96-2.93H8.96V97.58z"/>
	<polygon class="st0" points="97.24,92.44 91.28,92.44 91.28,89.25 106.91,89.25 106.91,92.44 100.95,92.44 100.95,109.66 
		97.24,109.66 	"/>
	<path class="st0" d="M195.78,99.4c2.16,0,3.42-1.38,3.42-3.51c0-2.1-1.26-3.45-3.36-3.45h-7.24v-3.19h7.88
		c3.82,0,6.49,2.67,6.49,6.64c0,3.97-2.67,6.73-6.49,6.73h-4.17v7.04h-3.71V99.4H195.78z"/>
	<polygon class="st0" points="177.75,31.1 146.4,17.24 137.28,21.27 137.28,26.32 146.4,22.28 146.4,22.28 146.4,51.63 157.05,59.1 
		149.16,59.1 149.16,79.17 176.33,79.17 176.33,79.16 177.75,79.16 	"/>
	<rect x="112.63" y="65.24" class="st0" width="7.22" height="7.23"/>
	<rect x="123.28" y="55.74" class="st0" width="7.22" height="7.23"/>
</g>
<path class="st1" d="M21.49,89.25h6.58c2.21,0,3.22,0.17,4.11,0.58c2.04,0.92,3.33,2.87,3.33,5.57c0,2.44-1.29,4.71-3.45,5.57v0.06
	c0,0,0.29,0.29,0.69,1.01l4.2,7.62h-4.14l-4.05-7.62H25.2v7.62h-3.71V89.25z M28.54,98.82c1.98,0,3.22-1.18,3.22-3.22
	c0-1.95-0.83-3.16-3.74-3.16H25.2v6.38H28.54z"/>
<rect x="40.4" y="89.25" class="st1" width="3.71" height="20.41"/>
<path class="st1" d="M58.36,88.91c4.97,0,7.53,2.79,7.53,2.79l-1.78,2.76c0,0-2.33-2.15-5.57-2.15c-4.31,0-6.84,3.22-6.84,7.01
	c0,3.88,2.61,7.3,6.87,7.3c3.54,0,5.92-2.59,5.92-2.59l1.95,2.67c0,0-2.82,3.3-8.02,3.3c-6.24,0-10.55-4.63-10.55-10.63
	C47.87,93.45,52.36,88.91,58.36,88.91"/>
<path class="st1" d="M78.88,88.91c6.01,0,10.55,4.57,10.55,10.4c0,6.01-4.54,10.69-10.55,10.69c-6.01,0-10.55-4.68-10.55-10.69
	C68.33,93.47,72.87,88.91,78.88,88.91 M78.88,106.61c3.74,0,6.72-3.1,6.72-7.3c0-4.02-2.99-7.01-6.72-7.01
	c-3.74,0-6.73,2.99-6.73,7.01C72.16,103.51,75.14,106.61,78.88,106.61"/>
<path class="st1" d="M110.35,89.25h6.58c2.21,0,3.22,0.17,4.11,0.58c2.04,0.92,3.33,2.87,3.33,5.57c0,2.44-1.29,4.71-3.45,5.57v0.06
	c0,0,0.29,0.29,0.69,1.01l4.2,7.62h-4.14l-4.05-7.62h-3.56v7.62h-3.71V89.25z M117.39,98.82c1.98,0,3.22-1.18,3.22-3.22
	c0-1.95-0.83-3.16-3.74-3.16h-2.82v6.38H117.39z"/>
<path class="st1" d="M139.4,104.43h-7.16l-1.72,5.23h-3.82l7.18-20.41h3.88l7.19,20.41h-3.82L139.4,104.43z M135.81,92.79
	c0,0-0.46,2.01-0.86,3.16l-1.81,5.46h5.35l-1.81-5.46c-0.37-1.15-0.8-3.16-0.8-3.16H135.81z"/>
<path class="st1" d="M144.14,89.25h4l4.48,13.31c0.4,1.18,0.75,2.99,0.78,2.99h0.06c0.03,0,0.37-1.81,0.78-2.99l4.51-13.31h3.97
	l-7.44,20.41h-3.68L144.14,89.25z"/>
<path class="st1" d="M174.28,88.91c6.01,0,10.55,4.57,10.55,10.4c0,6.01-4.54,10.69-10.55,10.69c-6.01,0-10.55-4.68-10.55-10.69
	C163.74,93.47,168.28,88.91,174.28,88.91 M174.28,106.61c3.74,0,6.72-3.1,6.72-7.3c0-4.02-2.99-7.01-6.72-7.01
	c-3.74,0-6.73,2.99-6.73,7.01C167.56,103.51,170.55,106.61,174.28,106.61"/>
<path class="st1" d="M206.24,89.25h6.58c2.21,0,3.22,0.17,4.11,0.58c2.04,0.92,3.33,2.87,3.33,5.57c0,2.44-1.29,4.71-3.45,5.57v0.06
	c0,0,0.29,0.29,0.69,1.01l4.2,7.62h-4.14l-4.05-7.62h-3.56v7.62h-3.71V89.25z M213.28,98.82c1.98,0,3.22-1.18,3.22-3.22
	c0-1.95-0.83-3.16-3.74-3.16h-2.82v6.38H213.28z"/>
<path class="st1" d="M234.17,88.91c6.01,0,10.55,4.57,10.55,10.4c0,6.01-4.54,10.69-10.55,10.69c-6.01,0-10.55-4.68-10.55-10.69
	C223.62,93.47,228.16,88.91,234.17,88.91 M234.17,106.61c3.74,0,6.72-3.1,6.72-7.3c0-4.02-2.99-7.01-6.72-7.01
	c-3.74,0-6.73,2.99-6.73,7.01C227.44,103.51,230.43,106.61,234.17,106.61"/>
<path class="st1" d="M132.65,28.29L132.65,28.29l0-5.05L102.7,10L69.01,24.9v54.27h4.62V27.91l29.07-12.85v34.89l20.65-14.49
	l9.43,6.61l-0.06-13.75L132.65,28.29z M102.7,15.05L102.7,15.05"/>
<polygon class="st1" points="77.96,38.46 98.16,29.53 98.16,24.34 77.96,33.27 "/>
<polygon class="st1" points="77.96,52.92 98.16,43.99 98.16,38.81 77.96,47.74 "/>
<rect x="112.63" y="55.74" class="st1" width="7.22" height="7.23"/>
<rect x="123.28" y="65.24" class="st1" width="7.22" height="7.23"/>
</svg>
