<?xml version="1.0" encoding="utf-8"?>
<!-- Generator: Adobe Illustrator 23.0.3, SVG Export Plug-In . SVG Version: 6.00 Build 0)  -->
<svg version="1.1" id="Calque_8" xmlns="http://www.w3.org/2000/svg" xmlns:xlink="http://www.w3.org/1999/xlink" x="0px" y="0px"
	 viewBox="0 0 300 200" style="enable-background:new 0 0 300 200;" xml:space="preserve">
<style type="text/css">
	.st0{fill:#B0B2B3;}
	.st1{fill:#FFFFFF;}
	.st2{fill:#009DDF;}
	.st3{fill:#FFEC00;}
	.st4{fill:#E1007A;}
</style>
<path id="Ombre_Phylactère" class="st0" d="M237.6,115.38c0.33,0.19,0.64,0.39,0.94,0.62c0.71-0.41,1.54-0.65,2.43-0.65
	c2.69,0,4.87,2.18,4.87,4.88c0,1.55-0.72,2.93-1.85,3.82c0.25,1.03,0.38,2.1,0.38,3.21c0,7.62-6.17,13.8-13.8,13.8
	c-3.72,0-7.09-1.47-9.57-3.86c-7.92,5.79-17.68,9.2-28.24,9.2c-7.25,0-14.12-1.61-20.27-4.49c-6.48,5.08-14.64,8.09-23.51,8.09
	c-9.66,0-18.48-3.58-25.2-9.51c-7.01,4.58-15.39,7.24-24.39,7.24c-24.67,0-44.66-19.98-44.66-44.66c0-24.66,19.98-44.66,44.66-44.66
	c14.61,0,27.58,7.02,35.72,17.86c4.3-1.68,8.98-2.6,13.87-2.6c0.92,0,1.83,0.03,2.73,0.1c8.38-13.9,23.62-23.2,41.05-23.2
	c12.02,0,23,4.42,31.41,11.74c0.6-0.36,1.31-0.56,2.05-0.56c2.25,0,4.06,1.82,4.06,4.06c0,0.78-0.22,1.52-0.61,2.14
	c6.87,8.29,10.99,18.93,10.99,30.54C240.67,104.43,239.58,110.12,237.6,115.38z"/>
<path id="Contour_Phylactère_1_" class="st1" d="M237.03,114.8c0.33,0.19,0.64,0.4,0.94,0.62c0.71-0.41,1.54-0.65,2.42-0.65
	c2.69,0,4.88,2.18,4.88,4.88c0,1.55-0.72,2.93-1.85,3.82c0.25,1.03,0.38,2.1,0.38,3.21c0,7.62-6.17,13.8-13.8,13.8
	c-3.72,0-7.09-1.47-9.57-3.86c-7.92,5.79-17.68,9.2-28.24,9.2c-7.25,0-14.12-1.61-20.27-4.49c-6.48,5.08-14.64,8.09-23.51,8.09
	c-9.66,0-18.48-3.58-25.21-9.51c-7.01,4.58-15.39,7.24-24.39,7.24c-24.67,0-44.65-19.98-44.65-44.65
	c0-24.66,19.98-44.66,44.65-44.66c14.61,0,27.58,7.02,35.72,17.86c4.3-1.68,8.98-2.6,13.87-2.6c0.92,0,1.83,0.03,2.73,0.1
	c8.38-13.9,23.62-23.2,41.05-23.2c12.02,0,23,4.42,31.41,11.74c0.6-0.36,1.31-0.56,2.05-0.56c2.25,0,4.06,1.82,4.06,4.06
	c0,0.78-0.22,1.52-0.61,2.14c6.87,8.29,10.99,18.93,10.99,30.54C240.09,103.86,239.01,109.55,237.03,114.8z"/>
<path id="Phylactère" d="M133.98,77.69c4.42-1.91,9.3-2.96,14.43-2.96c1.22,0,2.42,0.06,3.61,0.18
	C160,60.99,175,51.63,192.19,51.63c12.13,0,23.16,4.66,31.41,12.3c0.43-0.67,1.19-1.12,2.05-1.12c1.35,0,2.44,1.09,2.44,2.43
	c0,0.88-0.47,1.66-1.18,2.08c7.2,8.16,11.56,18.87,11.56,30.6c0,6.25-1.24,12.21-3.49,17.66c1.1,0.49,2.1,1.13,3,1.92
	c0.59-0.67,1.46-1.09,2.42-1.09c1.79,0,3.25,1.45,3.25,3.25c0,1.4-0.89,2.6-2.14,3.05c0.44,1.25,0.67,2.59,0.67,3.98
	c0,6.73-5.45,12.18-12.18,12.18c-3.78,0-7.15-1.72-9.39-4.41c-7.84,6.11-17.7,9.74-28.42,9.74c-7.36,0-14.31-1.71-20.49-4.77
	c-6.32,5.23-14.44,8.37-23.29,8.37c-9.7,0-18.52-3.77-25.06-9.94c-6.96,4.84-15.42,7.68-24.54,7.68
	c-23.77,0-43.03-19.26-43.03-43.03c0-23.76,19.26-43.03,43.03-43.03C113.34,59.47,126.18,66.67,133.98,77.69"/>
<path id="T_1_" class="st2" d="M70.34,122.99c-0.16,0.9,0.44,1.63,1.34,1.63h3.41c0.9,0,1.75-0.73,1.91-1.63l5.51-31.26
	c0.16-0.9-0.44-1.63-1.34-1.63H68.25c-0.9,0-1.75,0.73-1.91,1.63l-0.57,3.22c-0.16,0.9,0.44,1.62,1.34,1.62h7.08
	c0.45,0,0.75,0.36,0.67,0.81L70.34,122.99z"/>
<path id="D_1_" class="st3" d="M95.99,118.21c-0.45,0-0.75-0.36-0.67-0.81l0.48-2.7l2.14-12.11c0.16-0.9-0.44-1.63-1.34-1.63h-3.27
	c-0.89,0-1.75,0.73-1.91,1.63l-3.59,20.39c-0.16,0.9,0.44,1.63,1.34,1.63h6.28c4.47,0,7.66-0.28,9.57-0.85
	c1.91-0.56,3.77-1.58,5.59-3.05c1.81-1.47,3.36-3.32,4.64-5.55c1.28-2.23,2.15-4.67,2.62-7.33c0.66-3.74,0.45-7.01-0.64-9.8
	c-1.08-2.8-2.74-4.82-4.96-6.07c-2.22-1.24-5.83-1.86-10.85-1.86H88.95c-0.9,0-1.75,0.73-1.91,1.63l-0.54,3.08
	c-0.16,0.9,0.44,1.63,1.34,1.63h13.41c4.08,0,6.89,0.91,8.41,2.72c1.69,2.02,2.21,4.86,1.57,8.52c-0.42,2.38-1.2,4.38-2.35,6.01
	c-1.15,1.63-2.46,2.79-3.93,3.48c-1.47,0.69-3.71,1.03-6.71,1.03L95.99,118.21z"/>
<path id="I_1_" class="st4" d="M126.47,91.73c0.16-0.9,1.01-1.62,1.91-1.62h3.28c0.9,0,1.5,0.73,1.34,1.63l-5.51,31.26
	c-0.16,0.9-1.01,1.63-1.91,1.63l-3.28,0c-0.9,0-1.5-0.72-1.34-1.62L126.47,91.73z"/>
<g id="point_1_">
	<g id="XMLID_2_">
		<g>
			<path class="st1" d="M140.36,119.66c-0.05,0.26-0.17,0.47-0.35,0.63c-0.19,0.17-0.4,0.25-0.64,0.25c-0.24,0-0.42-0.08-0.54-0.25
				c-0.13-0.16-0.17-0.38-0.12-0.64c0.04-0.26,0.16-0.46,0.34-0.63c0.19-0.16,0.4-0.25,0.63-0.25c0.24,0,0.42,0.08,0.55,0.25
				C140.36,119.19,140.41,119.4,140.36,119.66z"/>
			<path class="st1" d="M138.03,116.96c-0.13-0.16-0.17-0.38-0.12-0.65c0.04-0.26,0.16-0.48,0.35-0.64c0.18-0.16,0.4-0.25,0.63-0.25
				c0.23,0,0.42,0.08,0.54,0.25c0.12,0.17,0.16,0.38,0.12,0.64c-0.04,0.26-0.16,0.48-0.35,0.64c-0.18,0.17-0.39,0.25-0.63,0.25
				C138.34,117.21,138.15,117.13,138.03,116.96z"/>
			<path class="st1" d="M137.64,123.47c0.07,0.06,0.1,0.15,0.12,0.27c0.01,0.12-0.02,0.36-0.08,0.72l-0.14,0.81
				c-0.4-0.05-0.77-0.15-1.12-0.3l0.07-0.4c0.05-0.31,0.1-0.52,0.14-0.61c0.07-0.18,0.18-0.32,0.3-0.42
				c0.13-0.1,0.27-0.16,0.42-0.16C137.47,123.37,137.56,123.41,137.64,123.47z"/>
			<path class="st1" d="M142.14,121.24l0.53-3.01h-0.76l-0.53,3.01H142.14z M142.91,117.48c0.03-0.14,0-0.25-0.08-0.35
				c-0.07-0.1-0.18-0.14-0.31-0.14c-0.14,0-0.25,0.05-0.37,0.14c-0.11,0.09-0.17,0.21-0.2,0.34c-0.03,0.14,0,0.26,0.07,0.35
				c0.08,0.1,0.19,0.14,0.32,0.14c0.13,0,0.25-0.05,0.36-0.14C142.82,117.73,142.88,117.62,142.91,117.48z M138.59,117.9
				c0.39,0,0.75-0.15,1.09-0.45c0.33-0.3,0.54-0.68,0.62-1.13c0.08-0.46,0.01-0.85-0.21-1.15c-0.06-0.08-0.12-0.15-0.2-0.2
				c0.07,0,0.14,0,0.21,0c1.43,0,2.57,0.5,3.41,1.51c0.84,1,1.13,2.22,0.88,3.65c-0.25,1.43-0.98,2.66-2.17,3.67
				c-0.73,0.62-1.51,1.05-2.33,1.29l0.3-1.68h0.45l0.12-0.65h-0.45l0.2-1.11h-0.76l-0.2,1.11h-0.39l-0.11,0.65h0.39l-0.32,1.85
				c-0.27,0.04-0.54,0.06-0.82,0.06c-0.01,0-0.01,0-0.01,0l0.27-1.54c0.06-0.35,0.02-0.61-0.13-0.79c-0.17-0.21-0.4-0.31-0.71-0.31
				c-0.14,0-0.29,0.03-0.44,0.09c-0.16,0.06-0.33,0.15-0.52,0.3l0.05-0.3h-0.01l0.08-0.43l0.85-4.83c0.12,0.14,0.26,0.24,0.39,0.3
				C138.25,117.87,138.41,117.9,138.59,117.9z M138.68,118.49c-0.4,0.31-0.64,0.7-0.72,1.17c-0.08,0.44,0,0.81,0.26,1.12
				c0.25,0.31,0.59,0.46,1.02,0.46c0.3,0,0.58-0.07,0.84-0.21c0.27-0.14,0.49-0.33,0.68-0.58c0.19-0.25,0.3-0.51,0.36-0.8
				c0.05-0.28,0.03-0.54-0.07-0.79c-0.1-0.25-0.26-0.44-0.48-0.58c-0.23-0.14-0.49-0.21-0.77-0.21
				C139.41,118.07,139.04,118.21,138.68,118.49z"/>
			<path class="st1" d="M136.87,122.34l-0.08,0.43h-0.75l-0.32,1.83c-0.31-0.21-0.59-0.48-0.85-0.79c-0.83-1.01-1.12-2.24-0.87-3.67
				c0.25-1.43,0.97-2.65,2.16-3.65c0.36-0.3,0.73-0.56,1.12-0.78l-1.17,6.64H136.87z"/>
		</g>
	</g>
</g>
<path id="c_1_" class="st1" d="M150.14,113.25c-1.19,6.73,3.32,12.2,10.05,12.2c2.66,0,5.33-0.85,7.7-2.42
	c0.4-0.3,0.69-0.75,0.78-1.24c0.08-0.44-0.02-0.85-0.25-1.15l-1.49-1.78c-0.24-0.29-0.63-0.46-1.08-0.46
	c-0.38,0-0.74,0.13-1.06,0.35c-1.13,0.64-2.36,0.98-3.59,0.98c-3.57,0-5.96-2.91-5.33-6.47c0.63-3.57,4.05-6.47,7.62-6.47
	c1.23,0,2.34,0.34,3.25,0.97c0.24,0.21,0.56,0.34,0.94,0.34c0.45,0,0.9-0.17,1.24-0.46l2.11-1.78c0.34-0.29,0.58-0.71,0.66-1.15
	c0.09-0.49-0.04-0.94-0.34-1.24c-1.82-1.56-4.19-2.42-6.84-2.42C157.76,101.04,151.32,106.52,150.14,113.25z"/>
<path id="_x30__1_" class="st1" d="M183.1,125.45c-6.73,0-11.24-5.47-10.05-12.2c1.19-6.73,7.63-12.2,14.35-12.2
	c6.73,0,11.24,5.47,10.05,12.2C196.27,119.97,189.83,125.45,183.1,125.45L183.1,125.45z M186.39,106.77c-3.57,0-6.99,2.9-7.62,6.47
	c-0.63,3.57,1.76,6.47,5.33,6.47c3.57,0,6.98-2.9,7.61-6.47C192.36,109.68,189.96,106.77,186.39,106.77L186.39,106.77z"/>
<path id="m_3_" class="st1" d="M200.67,125.32c-0.9,0-1.5-0.73-1.34-1.62l2.49-14.11c0.83-4.71,5.34-8.55,10.06-8.55
	c2.19,0,4.04,0.83,5.32,2.18h0c1.75-1.36,3.9-2.18,6.09-2.18c4.71,0,7.87,3.83,7.04,8.55l-2.49,14.11c-0.16,0.9-1.01,1.62-1.91,1.62
	h-2.48c-0.9,0-1.5-0.73-1.34-1.62l2.49-14.11c0.28-1.56-0.77-2.82-2.32-2.82c-1.56,0-3.04,1.26-3.32,2.82l-2.49,14.11
	c-0.16,0.9-1.01,1.62-1.91,1.62h-2.51c-0.9,0-1.5-0.73-1.34-1.62l2.49-14.11c0.27-1.56-0.77-2.82-2.32-2.82
	c-1.55,0-3.04,1.26-3.32,2.82l-2.49,14.11c-0.16,0.9-1.01,1.62-1.91,1.62H200.67z"/>
</svg>
