<?xml version="1.0" encoding="utf-8"?>
<!-- Generator: Adobe Illustrator 23.0.3, SVG Export Plug-In . SVG Version: 6.00 Build 0)  -->
<svg version="1.1" id="Calque_7" xmlns="http://www.w3.org/2000/svg" xmlns:xlink="http://www.w3.org/1999/xlink" x="0px" y="0px"
	 viewBox="0 0 300 200" style="enable-background:new 0 0 300 200;" xml:space="preserve">
<style type="text/css">
	.st0{fill:#E30613;}
	.st1{fill:#FFFFFF;}
	.st2{fill:#BFBFBF;}
	.st3{fill:none;stroke:#E5251D;stroke-width:0.75;}
	.st4{fill:#E30613;stroke:#E30613;}
</style>
<g>
	<path class="st0" d="M192.8,105.51V48.51c0,0,1.19-18.56-19.32-18.56c-20.64,0,0.48,0,0.48,0h-0.48h-21.16h-1.1
		c0,0,9.77,9.27,9.94,23.52c0,0,1.29,16.32-18.04,24.62c0,0-21.76,7.6-29.04,24.74l-69.22,27.25l105.13,41.43l105.15-41.43
		L192.8,105.51z"/>
	<path class="st1" d="M192.76,109.03v3.46l44.86,17.66l-87.65,34.51l-87.65-34.51l49.58-19.52c0.16-1.29,0.41-2.53,0.74-3.75
		l-59.09,23.27l96.4,37.97l96.38-37.97L192.76,109.03z"/>
	<path class="st2" d="M149.97,164.66l87.65-34.51l-44.86-17.66v6.44h-80.77c-0.41-2.95-0.42-5.7-0.09-8.3l-49.58,19.52
		L149.97,164.66z"/>
	<path class="st0" d="M105.59,52.66c0,13.46,11.03,24.29,24.62,24.29c13.66,0,24.7-10.83,24.7-24.29c0-13.34-11.03-24.17-24.7-24.17
		C116.62,28.49,105.59,39.32,105.59,52.66z"/>
	<g>
		<path class="st3" d="M196.16,103.09V48.45c0.01-0.13,0.01-0.31,0.01-0.6c0-2.33-0.45-9.5-5.57-14.96
			c-3.91-4.17-9.52-6.32-16.65-6.41v-0.02h-31.1c0,0-6.25-1.46-12.65-1.46c-15.43,0-27.99,12.35-27.99,27.54
			c0,15.25,12.55,27.65,27.99,27.65c0.25,0,0.5-0.01,0.75-0.02c-6.77,4.08-14.94,10.58-19.38,19.9c-2.43,0.96-75.9,29.89-75.9,29.89
			L150,175l114.32-45.04C264.32,129.96,200.14,104.66,196.16,103.09z"/>
	</g>
	<path class="st4" d="M118.4,127.27c-0.06-1.06-0.12-2.35-0.12-3.29h-0.02c-0.27,0.88-0.58,1.84-0.96,2.9l-1.35,3.7h-0.75
		l-1.24-3.63c-0.36-1.09-0.66-2.06-0.87-2.97h-0.02c-0.02,0.95-0.08,2.22-0.15,3.37l-0.2,3.27h-0.94l0.53-7.63h1.26l1.3,3.69
		c0.32,0.94,0.57,1.78,0.77,2.57h0.02c0.2-0.77,0.48-1.61,0.82-2.57l1.36-3.69h1.26l0.48,7.63h-0.97L118.4,127.27z"/>
	<path class="st4" d="M130.81,128.22l-0.79,2.4H129l2.59-7.63h1.19l2.6,7.63h-1.05l-0.81-2.4H130.81z M133.31,127.46l-0.76-2.2
		c-0.16-0.5-0.27-0.95-0.38-1.39h-0.03c-0.1,0.44-0.23,0.92-0.37,1.38l-0.75,2.21H133.31z"/>
	<path class="st4" d="M146.85,123v7.63h-1V123H146.85z"/>
	<path class="st4" d="M159.37,123.83h-2.32V123h5.65v0.84h-2.33v6.79h-1V123.83z"/>
	<path class="st4" d="M172.91,123.11c0.5-0.1,1.22-0.17,1.89-0.17c1.05,0,1.74,0.2,2.22,0.63c0.37,0.33,0.6,0.85,0.6,1.45
		c0,1-0.65,1.66-1.44,1.94v0.03c0.58,0.2,0.93,0.75,1.12,1.54c0.25,1.06,0.43,1.8,0.58,2.09h-1.02c-0.12-0.21-0.29-0.87-0.5-1.82
		c-0.23-1.05-0.65-1.45-1.54-1.48h-0.93v3.3h-0.98V123.11z M173.89,126.57h1.01c1.05,0,1.72-0.58,1.72-1.45
		c0-0.98-0.71-1.41-1.75-1.41c-0.48,0-0.8,0.05-0.97,0.09V126.57z"/>
	<path class="st4" d="M192.31,127.05h-2.95v2.75h3.3v0.83h-4.3V123h4.13v0.83h-3.13v2.41h2.95V127.05z"/>
	<path class="st4" d="M113.58,140.67l-0.79,2.4h-1.02l2.59-7.63h1.19l2.6,7.63h-1.05l-0.81-2.4H113.58z M116.08,139.9l-0.76-2.2
		c-0.16-0.5-0.27-0.95-0.38-1.39h-0.03c-0.1,0.44-0.23,0.92-0.37,1.38l-0.75,2.21H116.08z"/>
	<path class="st4" d="M126.27,135.56c0.5-0.1,1.22-0.17,1.89-0.17c1.05,0,1.74,0.2,2.22,0.63c0.37,0.33,0.6,0.85,0.6,1.45
		c0,1-0.65,1.66-1.44,1.94v0.03c0.58,0.2,0.93,0.75,1.12,1.54c0.25,1.06,0.43,1.8,0.58,2.09h-1.02c-0.12-0.22-0.29-0.87-0.5-1.82
		c-0.23-1.05-0.65-1.45-1.54-1.48h-0.93v3.3h-0.98V135.56z M127.26,139.02h1.01c1.05,0,1.72-0.58,1.72-1.45
		c0-0.98-0.71-1.41-1.75-1.41c-0.48,0-0.8,0.05-0.97,0.09V139.02z"/>
	<path class="st4" d="M141.21,136.28h-2.32v-0.84h5.65v0.84h-2.33v6.79h-1V136.28z"/>
	<path class="st4" d="M153.71,135.44v7.63h-1v-7.63H153.71z"/>
	<path class="st4" d="M161.98,141.87c0.44,0.28,1.08,0.5,1.75,0.5c1.01,0,1.6-0.52,1.6-1.3c0-0.7-0.41-1.12-1.44-1.51
		c-1.24-0.45-2.01-1.11-2.01-2.17c0-1.19,0.98-2.07,2.47-2.07c0.77,0,1.35,0.18,1.67,0.37l-0.27,0.8c-0.24-0.15-0.75-0.36-1.44-0.36
		c-1.04,0-1.44,0.62-1.44,1.14c0,0.71,0.46,1.06,1.52,1.47c1.29,0.51,1.94,1.12,1.94,2.24c0,1.18-0.86,2.21-2.66,2.21
		c-0.74,0-1.54-0.23-1.95-0.5L161.98,141.87z"/>
	<path class="st4" d="M175.58,140.67l-0.79,2.4h-1.02l2.59-7.63h1.19l2.6,7.63h-1.05l-0.81-2.4H175.58z M178.08,139.9l-0.76-2.2
		c-0.16-0.5-0.27-0.95-0.38-1.39h-0.03c-0.1,0.44-0.23,0.92-0.37,1.38l-0.75,2.21H178.08z"/>
	<path class="st4" d="M186.93,143.07v-7.63h1.09l2.43,3.86c0.55,0.89,1.01,1.69,1.36,2.48l0.03-0.01c-0.09-1.02-0.11-1.95-0.11-3.12
		v-3.2h0.93v7.63h-1l-2.42-3.87c-0.53-0.85-1.04-1.72-1.42-2.55l-0.03,0.01c0.06,0.96,0.07,1.88,0.07,3.15v3.26H186.93z"/>
</g>
</svg>
